<mxfile host="app.diagrams.net" agent="Mozilla/5.0 (Macintosh; Intel Mac OS X 10_15_7) AppleWebKit/537.36 (KHTML, like Gecko) Chrome/137.0.0.0 Safari/537.36" version="27.1.6">
  <diagram name="Page-1" id="M-az3DloqEI1rUbGLUEl">
    <mxGraphModel dx="2564" dy="1409" grid="0" gridSize="10" guides="1" tooltips="1" connect="1" arrows="1" fold="1" page="1" pageScale="1" pageWidth="1920" pageHeight="1080" background="light-dark(#FFFFFF,#FFFFFF)" math="0" shadow="0">
      <root>
        <mxCell id="0" />
        <mxCell id="1" parent="0" />
        <mxCell id="W7FsNv9sOyq8ad8Lk5w1-5" value="&lt;b&gt;&lt;font style=&quot;color: light-dark(rgb(0, 0, 0), rgb(204, 0, 0)); font-size: 13px;&quot;&gt;Region - EU-WEST-1&lt;/font&gt;&lt;/b&gt;" style="points=[[0,0],[0.25,0],[0.5,0],[0.75,0],[1,0],[1,0.25],[1,0.5],[1,0.75],[1,1],[0.75,1],[0.5,1],[0.25,1],[0,1],[0,0.75],[0,0.5],[0,0.25]];outlineConnect=0;gradientColor=none;html=1;whiteSpace=wrap;fontSize=12;fontStyle=0;container=1;pointerEvents=0;collapsible=0;recursiveResize=0;shape=mxgraph.aws4.group;grIcon=mxgraph.aws4.group_region;strokeColor=#00A4A6;fillColor=none;verticalAlign=top;align=left;spacingLeft=30;fontColor=#147EBA;dashed=1;strokeWidth=2;" vertex="1" parent="1">
          <mxGeometry x="398" y="169" width="1469" height="850" as="geometry" />
        </mxCell>
        <mxCell id="W7FsNv9sOyq8ad8Lk5w1-6" value="VPC" style="points=[[0,0],[0.25,0],[0.5,0],[0.75,0],[1,0],[1,0.25],[1,0.5],[1,0.75],[1,1],[0.75,1],[0.5,1],[0.25,1],[0,1],[0,0.75],[0,0.5],[0,0.25]];outlineConnect=0;gradientColor=none;html=1;whiteSpace=wrap;fontSize=13;fontStyle=1;container=1;pointerEvents=0;collapsible=0;recursiveResize=0;shape=mxgraph.aws4.group;grIcon=mxgraph.aws4.group_vpc2;strokeColor=#8C4FFF;fillColor=none;verticalAlign=top;align=left;spacingLeft=30;fontColor=#AAB7B8;dashed=0;strokeWidth=2;" vertex="1" parent="W7FsNv9sOyq8ad8Lk5w1-5">
          <mxGeometry x="281" y="77" width="1000" height="713" as="geometry" />
        </mxCell>
        <mxCell id="W7FsNv9sOyq8ad8Lk5w1-7" value="Availability Zone - 1" style="fillColor=none;strokeColor=#147EBA;dashed=1;verticalAlign=top;fontStyle=0;fontColor=#147EBA;whiteSpace=wrap;html=1;strokeWidth=3;fontSize=13;" vertex="1" parent="W7FsNv9sOyq8ad8Lk5w1-6">
          <mxGeometry x="65" y="108" width="350" height="570" as="geometry" />
        </mxCell>
        <mxCell id="W7FsNv9sOyq8ad8Lk5w1-8" value="Availability Zone - 2" style="fillColor=none;strokeColor=#147EBA;dashed=1;verticalAlign=top;fontStyle=0;fontColor=#147EBA;whiteSpace=wrap;html=1;strokeWidth=3;fontSize=13;" vertex="1" parent="W7FsNv9sOyq8ad8Lk5w1-6">
          <mxGeometry x="583" y="108" width="350" height="570" as="geometry" />
        </mxCell>
        <mxCell id="W7FsNv9sOyq8ad8Lk5w1-9" value="Private subnet-1" style="points=[[0,0],[0.25,0],[0.5,0],[0.75,0],[1,0],[1,0.25],[1,0.5],[1,0.75],[1,1],[0.75,1],[0.5,1],[0.25,1],[0,1],[0,0.75],[0,0.5],[0,0.25]];outlineConnect=0;gradientColor=none;html=1;whiteSpace=wrap;fontSize=12;fontStyle=0;container=1;pointerEvents=0;collapsible=0;recursiveResize=0;shape=mxgraph.aws4.group;grIcon=mxgraph.aws4.group_security_group;grStroke=0;strokeColor=#00A4A6;fillColor=light-dark(#E6F6F7,#33FFFF);verticalAlign=top;align=left;spacingLeft=30;fontColor=light-dark(#000000,#000099);dashed=0;" vertex="1" parent="W7FsNv9sOyq8ad8Lk5w1-6">
          <mxGeometry x="85" y="427" width="300" height="200" as="geometry" />
        </mxCell>
        <mxCell id="W7FsNv9sOyq8ad8Lk5w1-10" value="Private subnet-2" style="points=[[0,0],[0.25,0],[0.5,0],[0.75,0],[1,0],[1,0.25],[1,0.5],[1,0.75],[1,1],[0.75,1],[0.5,1],[0.25,1],[0,1],[0,0.75],[0,0.5],[0,0.25]];outlineConnect=0;gradientColor=none;html=1;whiteSpace=wrap;fontSize=12;fontStyle=0;container=1;pointerEvents=0;collapsible=0;recursiveResize=0;shape=mxgraph.aws4.group;grIcon=mxgraph.aws4.group_security_group;grStroke=0;strokeColor=#00A4A6;fillColor=light-dark(#E6F6F7,#33FFFF);verticalAlign=top;align=left;spacingLeft=30;fontColor=light-dark(#000000,#000099);dashed=0;" vertex="1" parent="W7FsNv9sOyq8ad8Lk5w1-6">
          <mxGeometry x="603" y="427" width="300" height="200" as="geometry" />
        </mxCell>
        <mxCell id="W7FsNv9sOyq8ad8Lk5w1-11" value="Public subnet-1" style="points=[[0,0],[0.25,0],[0.5,0],[0.75,0],[1,0],[1,0.25],[1,0.5],[1,0.75],[1,1],[0.75,1],[0.5,1],[0.25,1],[0,1],[0,0.75],[0,0.5],[0,0.25]];outlineConnect=0;gradientColor=none;html=1;whiteSpace=wrap;fontSize=12;fontStyle=0;container=1;pointerEvents=0;collapsible=0;recursiveResize=0;shape=mxgraph.aws4.group;grIcon=mxgraph.aws4.group_security_group;grStroke=0;strokeColor=#7AA116;fillColor=light-dark(#F2F6E8,#CCFF99);verticalAlign=top;align=left;spacingLeft=30;fontColor=light-dark(#248814,#284920);dashed=0;" vertex="1" parent="W7FsNv9sOyq8ad8Lk5w1-6">
          <mxGeometry x="84" y="178" width="300" height="200" as="geometry" />
        </mxCell>
        <mxCell id="W7FsNv9sOyq8ad8Lk5w1-12" value="Public subnet-2" style="points=[[0,0],[0.25,0],[0.5,0],[0.75,0],[1,0],[1,0.25],[1,0.5],[1,0.75],[1,1],[0.75,1],[0.5,1],[0.25,1],[0,1],[0,0.75],[0,0.5],[0,0.25]];outlineConnect=0;gradientColor=none;html=1;whiteSpace=wrap;fontSize=12;fontStyle=0;container=1;pointerEvents=0;collapsible=0;recursiveResize=0;shape=mxgraph.aws4.group;grIcon=mxgraph.aws4.group_security_group;grStroke=0;strokeColor=#7AA116;fillColor=light-dark(#F2F6E8,#CCFF99);verticalAlign=top;align=left;spacingLeft=30;fontColor=light-dark(#248814,#284920);dashed=0;" vertex="1" parent="W7FsNv9sOyq8ad8Lk5w1-6">
          <mxGeometry x="603" y="178" width="300" height="200" as="geometry" />
        </mxCell>
        <mxCell id="W7FsNv9sOyq8ad8Lk5w1-21" value="Application Load Balancer" style="sketch=0;outlineConnect=0;fontColor=#232F3E;gradientColor=none;strokeColor=#ffffff;fillColor=#232F3E;dashed=0;verticalLabelPosition=middle;verticalAlign=bottom;align=center;html=1;whiteSpace=wrap;fontSize=10;fontStyle=1;spacing=3;shape=mxgraph.aws4.productIcon;prIcon=mxgraph.aws4.application_load_balancer;" vertex="1" parent="W7FsNv9sOyq8ad8Lk5w1-6">
          <mxGeometry x="126" y="220" width="78.54" height="108" as="geometry" />
        </mxCell>
        <mxCell id="W7FsNv9sOyq8ad8Lk5w1-27" value="Application Load Balancer" style="sketch=0;outlineConnect=0;fontColor=#232F3E;gradientColor=none;strokeColor=#ffffff;fillColor=#232F3E;dashed=0;verticalLabelPosition=middle;verticalAlign=bottom;align=center;html=1;whiteSpace=wrap;fontSize=10;fontStyle=1;spacing=3;shape=mxgraph.aws4.productIcon;prIcon=mxgraph.aws4.application_load_balancer;" vertex="1" parent="W7FsNv9sOyq8ad8Lk5w1-6">
          <mxGeometry x="779" y="210.05" width="78.54" height="108" as="geometry" />
        </mxCell>
        <mxCell id="W7FsNv9sOyq8ad8Lk5w1-26" value="NAT gateway" style="sketch=0;outlineConnect=0;fontColor=light-dark(#232F3E,#000000);gradientColor=none;strokeColor=#232F3E;fillColor=#ffffff;dashed=0;verticalLabelPosition=bottom;verticalAlign=top;align=center;html=1;fontSize=12;fontStyle=0;aspect=fixed;shape=mxgraph.aws4.resourceIcon;resIcon=mxgraph.aws4.nat_gateway;" vertex="1" parent="W7FsNv9sOyq8ad8Lk5w1-6">
          <mxGeometry x="275" y="229.55" width="69" height="69" as="geometry" />
        </mxCell>
        <mxCell id="W7FsNv9sOyq8ad8Lk5w1-28" value="NAT gateway" style="sketch=0;outlineConnect=0;fontColor=light-dark(#232F3E,#000000);gradientColor=none;strokeColor=#232F3E;fillColor=#ffffff;dashed=0;verticalLabelPosition=bottom;verticalAlign=top;align=center;html=1;fontSize=12;fontStyle=0;aspect=fixed;shape=mxgraph.aws4.resourceIcon;resIcon=mxgraph.aws4.nat_gateway;" vertex="1" parent="W7FsNv9sOyq8ad8Lk5w1-6">
          <mxGeometry x="639" y="229.55" width="67" height="67" as="geometry" />
        </mxCell>
        <mxCell id="W7FsNv9sOyq8ad8Lk5w1-98" value="" style="group" vertex="1" connectable="0" parent="W7FsNv9sOyq8ad8Lk5w1-6">
          <mxGeometry x="189" y="488" width="101.60000000000002" height="96" as="geometry" />
        </mxCell>
        <mxCell id="W7FsNv9sOyq8ad8Lk5w1-18" value="Amazon ECS" style="sketch=0;outlineConnect=0;fontColor=#232F3E;gradientColor=none;strokeColor=#ffffff;fillColor=#232F3E;dashed=0;verticalLabelPosition=middle;verticalAlign=bottom;align=center;html=1;whiteSpace=wrap;fontSize=10;fontStyle=1;spacing=3;shape=mxgraph.aws4.productIcon;prIcon=mxgraph.aws4.ecs;" vertex="1" parent="W7FsNv9sOyq8ad8Lk5w1-98">
          <mxGeometry width="71.2" height="89" as="geometry" />
        </mxCell>
        <mxCell id="W7FsNv9sOyq8ad8Lk5w1-31" value="AWS Fargate" style="sketch=0;outlineConnect=0;fontColor=light-dark(#232F3E,#000000);gradientColor=none;strokeColor=#ffffff;fillColor=#232F3E;dashed=0;verticalLabelPosition=bottom;verticalAlign=top;align=center;html=1;whiteSpace=wrap;fontSize=9;fontStyle=0;spacing=3;shape=mxgraph.aws4.productIcon;prIcon=mxgraph.aws4.fargate;labelPosition=center;" vertex="1" parent="W7FsNv9sOyq8ad8Lk5w1-98">
          <mxGeometry x="68" y="54" width="33.6" height="42" as="geometry" />
        </mxCell>
        <mxCell id="W7FsNv9sOyq8ad8Lk5w1-99" value="" style="group" vertex="1" connectable="0" parent="W7FsNv9sOyq8ad8Lk5w1-6">
          <mxGeometry x="722.4" y="480.33" width="101.80000000000007" height="94.67000000000002" as="geometry" />
        </mxCell>
        <mxCell id="W7FsNv9sOyq8ad8Lk5w1-30" value="AWS Fargate" style="sketch=0;outlineConnect=0;fontColor=light-dark(#232F3E,#000000);gradientColor=none;strokeColor=#ffffff;fillColor=#232F3E;dashed=0;verticalLabelPosition=bottom;verticalAlign=top;align=center;html=1;whiteSpace=wrap;fontSize=9;fontStyle=0;spacing=3;shape=mxgraph.aws4.productIcon;prIcon=mxgraph.aws4.fargate;labelPosition=center;" vertex="1" parent="W7FsNv9sOyq8ad8Lk5w1-99">
          <mxGeometry x="68.20000000000005" y="52.670000000000016" width="33.6" height="42" as="geometry" />
        </mxCell>
        <mxCell id="W7FsNv9sOyq8ad8Lk5w1-29" value="Amazon ECS" style="sketch=0;outlineConnect=0;fontColor=#232F3E;gradientColor=none;strokeColor=#ffffff;fillColor=#232F3E;dashed=0;verticalLabelPosition=middle;verticalAlign=bottom;align=center;html=1;whiteSpace=wrap;fontSize=10;fontStyle=1;spacing=3;shape=mxgraph.aws4.productIcon;prIcon=mxgraph.aws4.ecs;" vertex="1" parent="W7FsNv9sOyq8ad8Lk5w1-99">
          <mxGeometry width="71.2" height="89" as="geometry" />
        </mxCell>
        <mxCell id="W7FsNv9sOyq8ad8Lk5w1-102" value="&lt;font style=&quot;color: light-dark(rgb(0, 0, 0), rgb(0, 0, 0));&quot;&gt;ECS Fargate Cluster&lt;/font&gt;" style="fillColor=none;strokeColor=light-dark(#5A6C86,#CC4413);dashed=1;verticalAlign=top;fontStyle=0;fontColor=#5A6C86;whiteSpace=wrap;html=1;strokeWidth=2;rounded=1;" vertex="1" parent="W7FsNv9sOyq8ad8Lk5w1-6">
          <mxGeometry x="158" y="466" width="701" height="150" as="geometry" />
        </mxCell>
        <mxCell id="W7FsNv9sOyq8ad8Lk5w1-103" style="edgeStyle=orthogonalEdgeStyle;rounded=0;orthogonalLoop=1;jettySize=auto;html=1;entryX=0.151;entryY=-0.02;entryDx=0;entryDy=0;entryPerimeter=0;strokeColor=light-dark(#000000,#000000);" edge="1" parent="W7FsNv9sOyq8ad8Lk5w1-6" source="W7FsNv9sOyq8ad8Lk5w1-21" target="W7FsNv9sOyq8ad8Lk5w1-102">
          <mxGeometry relative="1" as="geometry" />
        </mxCell>
        <mxCell id="W7FsNv9sOyq8ad8Lk5w1-104" style="edgeStyle=orthogonalEdgeStyle;rounded=0;orthogonalLoop=1;jettySize=auto;html=1;entryX=0.853;entryY=-0.027;entryDx=0;entryDy=0;entryPerimeter=0;strokeColor=light-dark(#000000,#000000);" edge="1" parent="W7FsNv9sOyq8ad8Lk5w1-6" source="W7FsNv9sOyq8ad8Lk5w1-27" target="W7FsNv9sOyq8ad8Lk5w1-102">
          <mxGeometry relative="1" as="geometry" />
        </mxCell>
        <mxCell id="W7FsNv9sOyq8ad8Lk5w1-51" value="" style="group" vertex="1" connectable="0" parent="W7FsNv9sOyq8ad8Lk5w1-5">
          <mxGeometry x="30" y="99" width="90" height="89.5" as="geometry" />
        </mxCell>
        <mxCell id="W7FsNv9sOyq8ad8Lk5w1-23" value="Amazon S3" style="sketch=0;outlineConnect=0;fontColor=#232F3E;gradientColor=none;strokeColor=#ffffff;fillColor=#232F3E;dashed=0;verticalLabelPosition=middle;verticalAlign=bottom;align=center;html=1;whiteSpace=wrap;fontSize=10;fontStyle=1;spacing=3;shape=mxgraph.aws4.productIcon;prIcon=mxgraph.aws4.s3;" vertex="1" parent="W7FsNv9sOyq8ad8Lk5w1-51">
          <mxGeometry x="18" width="50" height="62.5" as="geometry" />
        </mxCell>
        <mxCell id="W7FsNv9sOyq8ad8Lk5w1-50" value="&lt;font style=&quot;color: light-dark(rgb(0, 0, 0), rgb(0, 0, 0));&quot;&gt;Infra Bucket&lt;/font&gt;" style="text;html=1;align=center;verticalAlign=middle;resizable=0;points=[];autosize=1;strokeColor=none;fillColor=none;" vertex="1" parent="W7FsNv9sOyq8ad8Lk5w1-51">
          <mxGeometry y="59.5" width="90" height="30" as="geometry" />
        </mxCell>
        <mxCell id="W7FsNv9sOyq8ad8Lk5w1-61" style="edgeStyle=orthogonalEdgeStyle;rounded=0;orthogonalLoop=1;jettySize=auto;html=1;dashed=1;strokeColor=light-dark(#000000,#00CC00);" edge="1" parent="W7FsNv9sOyq8ad8Lk5w1-5" source="W7FsNv9sOyq8ad8Lk5w1-33" target="W7FsNv9sOyq8ad8Lk5w1-26">
          <mxGeometry relative="1" as="geometry">
            <Array as="points">
              <mxPoint x="118" y="480" />
              <mxPoint x="500" y="480" />
              <mxPoint x="500" y="341" />
            </Array>
          </mxGeometry>
        </mxCell>
        <mxCell id="W7FsNv9sOyq8ad8Lk5w1-108" style="edgeStyle=orthogonalEdgeStyle;rounded=0;orthogonalLoop=1;jettySize=auto;html=1;strokeColor=light-dark(#000000,#00CC00);dashed=1;" edge="1" parent="W7FsNv9sOyq8ad8Lk5w1-5" source="W7FsNv9sOyq8ad8Lk5w1-33" target="W7FsNv9sOyq8ad8Lk5w1-22">
          <mxGeometry relative="1" as="geometry">
            <Array as="points">
              <mxPoint x="150" y="830" />
              <mxPoint x="1390" y="830" />
            </Array>
          </mxGeometry>
        </mxCell>
        <mxCell id="W7FsNv9sOyq8ad8Lk5w1-33" value="AWS CloudFormation" style="sketch=0;outlineConnect=0;fontColor=#232F3E;gradientColor=none;strokeColor=#ffffff;fillColor=#232F3E;dashed=0;verticalLabelPosition=middle;verticalAlign=bottom;align=center;html=1;whiteSpace=wrap;fontSize=10;fontStyle=1;spacing=3;shape=mxgraph.aws4.productIcon;prIcon=mxgraph.aws4.cloudformation;" vertex="1" parent="W7FsNv9sOyq8ad8Lk5w1-5">
          <mxGeometry x="76" y="291" width="83" height="114.13" as="geometry" />
        </mxCell>
        <mxCell id="W7FsNv9sOyq8ad8Lk5w1-54" style="edgeStyle=orthogonalEdgeStyle;rounded=0;orthogonalLoop=1;jettySize=auto;html=1;entryX=1.02;entryY=0.48;entryDx=0;entryDy=0;entryPerimeter=0;strokeColor=light-dark(#000000,#000000);dashed=1;startArrow=classicThin;startFill=1;" edge="1" parent="W7FsNv9sOyq8ad8Lk5w1-5" source="W7FsNv9sOyq8ad8Lk5w1-33" target="W7FsNv9sOyq8ad8Lk5w1-23">
          <mxGeometry relative="1" as="geometry" />
        </mxCell>
        <mxCell id="W7FsNv9sOyq8ad8Lk5w1-55" value="GitSync&lt;div&gt;(Poll S3 URL)&lt;/div&gt;" style="edgeLabel;html=1;align=center;verticalAlign=middle;resizable=0;points=[];" vertex="1" connectable="0" parent="W7FsNv9sOyq8ad8Lk5w1-54">
          <mxGeometry x="-0.3278" y="1" relative="1" as="geometry">
            <mxPoint x="1" as="offset" />
          </mxGeometry>
        </mxCell>
        <mxCell id="W7FsNv9sOyq8ad8Lk5w1-56" style="edgeStyle=orthogonalEdgeStyle;rounded=0;orthogonalLoop=1;jettySize=auto;html=1;entryX=-0.001;entryY=0.029;entryDx=0;entryDy=0;entryPerimeter=0;strokeColor=light-dark(#000000,#00CC00);dashed=1;" edge="1" parent="W7FsNv9sOyq8ad8Lk5w1-5" source="W7FsNv9sOyq8ad8Lk5w1-33" target="W7FsNv9sOyq8ad8Lk5w1-6">
          <mxGeometry relative="1" as="geometry" />
        </mxCell>
        <mxCell id="W7FsNv9sOyq8ad8Lk5w1-57" style="edgeStyle=orthogonalEdgeStyle;rounded=0;orthogonalLoop=1;jettySize=auto;html=1;entryX=-0.038;entryY=0.481;entryDx=0;entryDy=0;entryPerimeter=0;strokeColor=light-dark(#000000,#00CC00);dashed=1;" edge="1" parent="W7FsNv9sOyq8ad8Lk5w1-5" source="W7FsNv9sOyq8ad8Lk5w1-33" target="W7FsNv9sOyq8ad8Lk5w1-21">
          <mxGeometry relative="1" as="geometry" />
        </mxCell>
        <mxCell id="W7FsNv9sOyq8ad8Lk5w1-58" value="Create/Update&lt;div&gt;Stacks&lt;/div&gt;" style="edgeLabel;html=1;align=center;verticalAlign=middle;resizable=0;points=[];" vertex="1" connectable="0" parent="W7FsNv9sOyq8ad8Lk5w1-57">
          <mxGeometry x="-0.7641" relative="1" as="geometry">
            <mxPoint x="39" y="-5" as="offset" />
          </mxGeometry>
        </mxCell>
        <mxCell id="W7FsNv9sOyq8ad8Lk5w1-59" style="edgeStyle=orthogonalEdgeStyle;rounded=0;orthogonalLoop=1;jettySize=auto;html=1;dashed=1;strokeColor=light-dark(#000000,#00CC00);exitX=1.012;exitY=0.491;exitDx=0;exitDy=0;exitPerimeter=0;" edge="1" parent="W7FsNv9sOyq8ad8Lk5w1-5" source="W7FsNv9sOyq8ad8Lk5w1-33" target="W7FsNv9sOyq8ad8Lk5w1-27">
          <mxGeometry relative="1" as="geometry">
            <mxPoint x="120" y="301" as="sourcePoint" />
            <mxPoint x="1110" y="280" as="targetPoint" />
            <Array as="points">
              <mxPoint x="180" y="347" />
              <mxPoint x="180" y="240" />
              <mxPoint x="1090" y="240" />
              <mxPoint x="1090" y="280" />
              <mxPoint x="1099" y="280" />
            </Array>
          </mxGeometry>
        </mxCell>
        <mxCell id="W7FsNv9sOyq8ad8Lk5w1-60" style="edgeStyle=orthogonalEdgeStyle;rounded=0;orthogonalLoop=1;jettySize=auto;html=1;entryX=0.548;entryY=-0.034;entryDx=0;entryDy=0;entryPerimeter=0;strokeColor=light-dark(#000000,#00CC00);dashed=1;" edge="1" parent="W7FsNv9sOyq8ad8Lk5w1-5" source="W7FsNv9sOyq8ad8Lk5w1-33" target="W7FsNv9sOyq8ad8Lk5w1-18">
          <mxGeometry relative="1" as="geometry">
            <Array as="points">
              <mxPoint x="118" y="480" />
              <mxPoint x="509" y="480" />
            </Array>
          </mxGeometry>
        </mxCell>
        <mxCell id="W7FsNv9sOyq8ad8Lk5w1-62" style="edgeStyle=orthogonalEdgeStyle;rounded=0;orthogonalLoop=1;jettySize=auto;html=1;entryX=0.478;entryY=-0.034;entryDx=0;entryDy=0;entryPerimeter=0;dashed=1;strokeColor=light-dark(#000000,#00CC00);" edge="1" parent="W7FsNv9sOyq8ad8Lk5w1-5" source="W7FsNv9sOyq8ad8Lk5w1-33" target="W7FsNv9sOyq8ad8Lk5w1-29">
          <mxGeometry relative="1" as="geometry">
            <Array as="points">
              <mxPoint x="118" y="480" />
              <mxPoint x="1061" y="480" />
            </Array>
          </mxGeometry>
        </mxCell>
        <mxCell id="W7FsNv9sOyq8ad8Lk5w1-63" style="edgeStyle=orthogonalEdgeStyle;rounded=0;orthogonalLoop=1;jettySize=auto;html=1;dashed=1;strokeColor=light-dark(#000000,#00CC00);" edge="1" parent="W7FsNv9sOyq8ad8Lk5w1-5" source="W7FsNv9sOyq8ad8Lk5w1-33" target="W7FsNv9sOyq8ad8Lk5w1-28">
          <mxGeometry relative="1" as="geometry">
            <Array as="points">
              <mxPoint x="118" y="480" />
              <mxPoint x="940" y="480" />
              <mxPoint x="940" y="340" />
            </Array>
          </mxGeometry>
        </mxCell>
        <mxCell id="W7FsNv9sOyq8ad8Lk5w1-105" style="edgeStyle=orthogonalEdgeStyle;rounded=0;orthogonalLoop=1;jettySize=auto;html=1;dashed=1;strokeColor=light-dark(#000000,#000000);strokeWidth=2;" edge="1" parent="W7FsNv9sOyq8ad8Lk5w1-5">
          <mxGeometry relative="1" as="geometry">
            <mxPoint x="101" y="631" as="sourcePoint" />
            <mxPoint x="1381" y="620" as="targetPoint" />
            <Array as="points">
              <mxPoint x="101" y="810" />
              <mxPoint x="1381" y="810" />
            </Array>
          </mxGeometry>
        </mxCell>
        <mxCell id="W7FsNv9sOyq8ad8Lk5w1-19" value="Amazon ECR" style="sketch=0;outlineConnect=0;fontColor=#232F3E;gradientColor=none;strokeColor=#ffffff;fillColor=#232F3E;dashed=0;verticalLabelPosition=middle;verticalAlign=bottom;align=center;html=1;whiteSpace=wrap;fontSize=10;fontStyle=1;spacing=3;shape=mxgraph.aws4.productIcon;prIcon=mxgraph.aws4.ecr;" vertex="1" parent="W7FsNv9sOyq8ad8Lk5w1-5">
          <mxGeometry x="64" y="541" width="72" height="90" as="geometry" />
        </mxCell>
        <mxCell id="W7FsNv9sOyq8ad8Lk5w1-24" value="Internet&#xa;gateway" style="sketch=0;outlineConnect=0;fontColor=light-dark(#232F3E,#000000);gradientColor=none;strokeColor=#232F3E;fillColor=#ffffff;dashed=0;verticalLabelPosition=bottom;verticalAlign=top;align=center;html=1;fontSize=13;fontStyle=0;aspect=fixed;shape=mxgraph.aws4.resourceIcon;resIcon=mxgraph.aws4.internet_gateway;" vertex="1" parent="W7FsNv9sOyq8ad8Lk5w1-5">
          <mxGeometry x="757" y="51" width="48" height="48" as="geometry" />
        </mxCell>
        <mxCell id="W7FsNv9sOyq8ad8Lk5w1-100" style="edgeStyle=orthogonalEdgeStyle;rounded=0;orthogonalLoop=1;jettySize=auto;html=1;strokeColor=light-dark(#232F3E,#000000);dashed=1;" edge="1" parent="W7FsNv9sOyq8ad8Lk5w1-5" source="W7FsNv9sOyq8ad8Lk5w1-24" target="W7FsNv9sOyq8ad8Lk5w1-11">
          <mxGeometry relative="1" as="geometry">
            <mxPoint x="670" y="330" as="targetPoint" />
            <Array as="points">
              <mxPoint x="780" y="355" />
            </Array>
          </mxGeometry>
        </mxCell>
        <mxCell id="W7FsNv9sOyq8ad8Lk5w1-101" style="edgeStyle=orthogonalEdgeStyle;rounded=0;orthogonalLoop=1;jettySize=auto;html=1;entryX=0;entryY=0.5;entryDx=0;entryDy=0;dashed=1;strokeColor=light-dark(#000000,#000000);" edge="1" parent="W7FsNv9sOyq8ad8Lk5w1-5" source="W7FsNv9sOyq8ad8Lk5w1-24" target="W7FsNv9sOyq8ad8Lk5w1-12">
          <mxGeometry relative="1" as="geometry">
            <Array as="points">
              <mxPoint x="780" y="355" />
            </Array>
          </mxGeometry>
        </mxCell>
        <mxCell id="W7FsNv9sOyq8ad8Lk5w1-22" value="AWS CodeDeploy" style="sketch=0;outlineConnect=0;fontColor=#232F3E;gradientColor=none;strokeColor=#ffffff;fillColor=#232F3E;dashed=0;verticalLabelPosition=middle;verticalAlign=bottom;align=center;html=1;whiteSpace=wrap;fontSize=10;fontStyle=1;spacing=3;shape=mxgraph.aws4.productIcon;prIcon=mxgraph.aws4.codedeploy;" vertex="1" parent="W7FsNv9sOyq8ad8Lk5w1-5">
          <mxGeometry x="1366" y="510" width="80" height="110" as="geometry" />
        </mxCell>
        <mxCell id="W7FsNv9sOyq8ad8Lk5w1-106" style="edgeStyle=orthogonalEdgeStyle;rounded=0;orthogonalLoop=1;jettySize=auto;html=1;entryX=0.957;entryY=0.447;entryDx=0;entryDy=0;entryPerimeter=0;strokeColor=light-dark(#000000,#000000);strokeWidth=2;" edge="1" parent="W7FsNv9sOyq8ad8Lk5w1-5" source="W7FsNv9sOyq8ad8Lk5w1-22" target="W7FsNv9sOyq8ad8Lk5w1-102">
          <mxGeometry relative="1" as="geometry" />
        </mxCell>
        <mxCell id="W7FsNv9sOyq8ad8Lk5w1-107" value="Blue/Green&lt;div&gt;Deployment&lt;/div&gt;" style="edgeLabel;html=1;align=center;verticalAlign=middle;resizable=0;points=[];" vertex="1" connectable="0" parent="W7FsNv9sOyq8ad8Lk5w1-106">
          <mxGeometry x="-0.7602" relative="1" as="geometry">
            <mxPoint x="-9" as="offset" />
          </mxGeometry>
        </mxCell>
        <mxCell id="W7FsNv9sOyq8ad8Lk5w1-39" value="" style="group" vertex="1" connectable="0" parent="1">
          <mxGeometry x="71" y="169" width="106.71" height="98.5" as="geometry" />
        </mxCell>
        <mxCell id="W7FsNv9sOyq8ad8Lk5w1-14" value="" style="dashed=0;outlineConnect=0;html=1;align=center;labelPosition=center;verticalLabelPosition=bottom;verticalAlign=top;shape=mxgraph.weblogos.github" vertex="1" parent="W7FsNv9sOyq8ad8Lk5w1-39">
          <mxGeometry x="22.625384615384615" y="6" width="61.56346153846153" height="61.5625" as="geometry" />
        </mxCell>
        <mxCell id="W7FsNv9sOyq8ad8Lk5w1-35" value="&lt;font style=&quot;&quot;&gt;GitHub&lt;/font&gt;&lt;div&gt;Infrastructure Repo&lt;/div&gt;" style="text;html=1;align=center;verticalAlign=middle;resizable=0;points=[];autosize=1;strokeColor=none;fillColor=none;fontColor=light-dark(#000000,#000000);fontStyle=0" vertex="1" parent="W7FsNv9sOyq8ad8Lk5w1-39">
          <mxGeometry x="-8" y="65.66666666666666" width="130" height="40" as="geometry" />
        </mxCell>
        <mxCell id="W7FsNv9sOyq8ad8Lk5w1-41" value="" style="group" vertex="1" connectable="0" parent="1">
          <mxGeometry x="148" y="380.5" width="102" height="90" as="geometry" />
        </mxCell>
        <mxCell id="W7FsNv9sOyq8ad8Lk5w1-82" value="" style="group" vertex="1" connectable="0" parent="W7FsNv9sOyq8ad8Lk5w1-41">
          <mxGeometry y="0.58" width="100" height="94.46854368932038" as="geometry" />
        </mxCell>
        <mxCell id="W7FsNv9sOyq8ad8Lk5w1-81" value="" style="rounded=0;whiteSpace=wrap;html=1;fillColor=light-dark(#FFFFFF,#FFFFFF);" vertex="1" parent="W7FsNv9sOyq8ad8Lk5w1-82">
          <mxGeometry width="100" height="89.42" as="geometry" />
        </mxCell>
        <mxCell id="W7FsNv9sOyq8ad8Lk5w1-34" value="" style="shape=image;verticalLabelPosition=bottom;labelBackgroundColor=default;verticalAlign=top;aspect=fixed;imageAspect=0;image=data:image/png,iVBORw0KGgoAAAANSUhEUgAAAgAAAAIACAMAAADDpiTIAAADAFBMVEVMaXEeiP8fiP8Ziv8gh/8eif8eif8gif8gh/8VpP8djP8XiP8ah/8eiP8Ai/8kkP8gh/9MaXEgh/8eiP8ggf8biP8eh/8eiP8eiP8fif8fh/8giP8fif8fh/8giP8fiP8eh/8eh/8giP8eiP8eh/8eh/8fiP8gif8giP8gif8giP8eiP8fiP8fif8giP8iif8eif8dh/8eiP8eiP8fif8cj/8eiP8fiP8giP8eh/8eiP8fiP8eif8eif8eh/8fiP8giP8giP8eiP8eh/8ciP8fh/8Ugf8eiP8eh/8eiP8cif8gif8eif8eh/8gif8eiP8eif8eiP8eh/8eif8eiP8cj/8eh/8Sgf8eh/8eiP8eif8gif8gj/8gif8eif8eiP8eif8ei/8ah/8eif8eiP8eif8eiP8eif8giP8gif8gif8cif8Uif98vf8eh/8diP8gh/8eif8gif8fiP8gif8gh/8eif8eif8eiP8eif94uP8eh/8ci/8gh/8eh/8eh/8gif8eif8cif8gi/95uv8gh/8ah/8eh/8eh/8gif8giP8gif8chf8gh/96uv8eh/94uP94uP94uP8eh/8eh/8eif8gh/8eif94uP8eif8gh/8gh/8gh/8ci/94uf93xP96uv94uP8eh/94uf8eif8chf8gif8ch/8gif94uP8gif8gh/8gh/93uf94t/95u/94u/90u/8eh/8gif94uf94uf94uf93uf8eh/94uP8eh/8gif8gif94uf8eif94uP8gif8eh/8eif94uf8eif94uf8gif94uf94uP94uf93uf94uf94uP8ch/94uP94t/94uP94uP8eh/93uf94uP93u/8gi/8eh/94uf94uf94uf94vf94uP94uf94uf95uf8gif8gif94t/8eh/94uf94t/94uf94t/93uP8eif94uf94uf94uf94t/92t/95uP94uf94uf8gh/94uP+B1f96vf93uP95uP92uf96uf94uf90tf9mzf8gif94uf8eif/0vNazAAAA/XRSTlMAUhgUQFb9qasCHgocKgQFqQD3aggWLjpLXpbZ3LHRt/P9ua1U74+wYPOZfCi/cA4yT5JyvAhiw4m8NkiWnvWzoMlC+zTkDGTVpizv7RDgjfecx4TNEoQO7aPVzxBY5XfrIBLFXMta9cHn8RoMC91GWKvHZunh435BRP3FIus4evnfPjAw8SZubKFoJiyRD3Ry8Pfb51TLterX+el2JMAIH+YiK2wagSSH8/uB12DfGSgUMDiDVUdNSqTPblDhPKp+h4ucetand4+xP2W5PLzMxom1OXsjPos1bK0SUe2fW054lJvPmZfZHHRo2375JkK1ySDUBhY8WW5EfBgEXagLGgAAAAlwSFlzAAALEwAACxMBAJqcGAAAIABJREFUeNrtfQlMVcf+/wA26WURHquAAheNGkBQECgQUYtSjEGiVQE1blGDGhEliFxcEhU31IoLMUCsS4w2VNtnN419GtL8avtqq10MrbVWbX02rXZ51tfX9++5+Qc37vKdc+acMzPnHJzPz9efr+/eme+d7+fMmfmuCDFE5nqftuditvRPrIjruzBBCp09Ydqk4YPKk0pqo6MikEBPxtCs9IpWSQ4J87ek9ioVK9XjEHB206jpEikq+6/NE5tBj0HmsJgiST1m9s/yE4tneSwO+0zSjvrkILGEFkZaVo5d0om4tsViIa2JdwdJdFBRHS5W02rwu1Ej0UNZySGxpFZCVLlEGzk+YlktgvCsyRILTGibIRbX/CieWiYxQ9K/xQKb/OlvGy+xREtJsVhk88I2eIXEGotmiSuBWbGuSOKBmnk2sdYmxMZ4iRem54rlNhvSYiSeWBYoltxUqGqV+CLhjHgPmAdHEiX+mL9NLLxJsDVfMgS1YulN8fbvJxmFbHESMB4fL5SMw6JhQgEGo12b5voOf3ZiSW1q9Lu9+iwIu/FcUkh8c6g247BQgZEIUH33X10/Yta7Kb2hwQLrwrbH16iNIFku4saMw6FYVbqqHBGt7MwpPPXc6AI1o+4ZKhRhEJY2qNjzk+b5km8seR2TVFBgnlCFIUglflCLao+qv1xk5RCPf0wYhfjDNoI0jqNjvcYpIjbXE54IPssUCuF9+68gC+ZLj9I1jf+saWTuIV+hEq6YEkeilrEZAfqnOpVN5CMWNiGe8CU5/sdmBdOZ7Y2RBG+CmUeFWrjh3wQh3/P3UjyZBZUrHwhXRwrFcMJGZd9vaxXlOVOUzxwNwiDAB4F7lFRRUFJIf9oFik6H1Y1CORzgV6mY0pnCZOLS7UrvgZniJMgepUqRn63sDHORo5WMzeI2yBqZ8xV0EJPGcvoshayTojShIqawKbj/ZtexvoAuV4gRCRZKYgmFpM9s9oVdbFPljQL9hJIYotYMQXp18rfQEqEmZlgqf/qL4iRGhLxx+F2hKEZYLJv4mTiX30kkWe5C2OAvVMVm2ZtlT/9cZcmTiyCcLg6CTHBMZs3tbZyFGSp3H9wulMUAvWRO3y17uYtzSM4hlSfURf/ktRq/3vnrDBDITyZUZPwRoTDaBwCZk3erMY7YQhkH4WgRJUgZMgkgZauMEmokXqgOoTK6Zy78AaDBuECMTBnnkAgOoAq8C7BljYFipeFD0+LES4AiNuHvf30MFcx3JlayDKE2ejeABOwyRxss2kasdTJfdByghhCs/ttJh8hNbW9P7cOg+PsafB0hoThKqMOucX8y5bclPtlCZibSDhddgJWuTqiOCnpjgwAnEMR+2gZ7muxq2uiG7WBz1Cp7C+XRQDL2ESMo19fnVej1nE6z4Gv4qzj51grlUUAg1vGWqvjdUtzpYfUCihIG4YpUhYooYQqYiNP/SMWvRspEkCdS9Npn4SaZKNSnG3Nwi7tCsXq/j2zZn9Ab9IQch5tExIboxiicBWiM0jevK+VxxFEz12ZOEDWkeG8ALyp98yRBAvH2AEpinhRbAOcTQI3SF9MqCQggjT1FSc4YU0Sq9TxEFGgNvR1JWvebjsU2DWMSDhUdRnRhKkZt8UpfjCav9hnG9CaQLJSox8aCCb1smaPwRZuaroHLqWQTY2KWW0WIsA6EafUBDVBX7rOdgqxDMWNnCTVqR1/MCVCxb1OOyoKvsRTCSpPgoacJNWpGndYggED1VZ8n6vYQRWBGfkMoUiuexWwAitFWWzXU/dZfVigdHniUUCTlR2qr4jdDNJV+j9fpu8HsO6Gi46xGrMUUgVA+V2tsIJiQqi+SExMZcEaoUhsqNUdbam4B0rxej8CNmJKFQpWasB6TdhXOkABSQaeeus+YV48IC6BpBSQJs4EzSMgoUKMjlG8bPGSbUKYWwMa8hDStBFiwlrAt0DjtXWDgDmbNQpn0LGvfIa0EGIDmDCFjQJlm691S8Q5g/QZYp5kAzyCE5s0mo0DFHG1C21o1Ri8KeGEyHAiGdBEAFY8iY0BosjYnzkBwtByhTtWYi2nPo5MACJ0lbDVWpKlH/Bj4bhEgFKoWGP96im4CoOD2FiIG2DVVnd0NjiU6jKpGfziOE+knAEJHyRoOSTN91MtdK4JD6QC+tb9EhQDKRZ+f5B6oLv+9CnY3C4WqRBC8K0dQIgDyG0fGgIbNat0DcDXpuUKl6lCty6quTACEehFGjc3fpk5y2IV1XahUHeDbWidFAqDMY2StQVs6VLkHonTcXgSeAL6r9aFJAIS2zSfbBCp7qbEFgQbnCqFSVZgCa6JUDwEGAB8MSyCjwCgV4f2JYMEYoVNVWAmqYTKiuwN0VXlaRsaA2eSdiOB6BqKjmCqk6uvFQE4AhE6tIKPAENI0v7Pg132EUtVghD57mhoCoIASssNgfhvZjRA+BLQLpaoBmGZjD2BCAIQip5NtAqMXE80OJiUMEkpVA/AhqkS6CDBA7pWTTxYosJJk9ueELVAv4ADrRMRoB0AIHSHLJi4gqS0EGrEKhFZV4GNw9dMZEgChZxYSUWCz8uzrRKkIvYCTuzcxJQBKS7eTOImVwwQWaw9lEngIuDvAUnZngIfIJUkoWaEcJZBgxqrGlsIWcOkPsSYAQrMIAoeV30TgpaJWqJUciTqPUZpeAQ/gn6j8ElDsULFMVAvSCTAg9FUeBECoqlUxSkRpiA7oWyFCreQAXfVD+BAApSUpHAbtSmH+Z6BvDRdqJQd4iurHiQAInX1VngFTtVxipgu16lRgOTcCoOBk2cNgkcLXfTRVNhRQUGCMzu8PUCNBo2wWmcJ9BCxtkyDUqlOBnfx2gAf7uEyr0sHyX4XbyGQKvepTYDJfAiC/LVgCKAQmRIJf8hV61afAVM4EQGglrt7wZwrGBPBLQUKv+hSYxZ0AKPNFOItskvzX5gpnAAsCVOn8/gAtkqTUa7kGiPxAnSjQ6U2htQMgtFELATJFVKBOgLfwMP4ECD8GvwLq5b8GFzg8JfRKjAadpZYovQLycNljCkZJuM2J6CNJjjKdcbVUdgDfZ+leAz8WeiXGTF1ZAXQIkCqTNKSQJQKnB+YKvRKjSGeRBf2vgNw4OVPwv+W/vFTYAXQCPHqP47cDlMqHByrdAvcKS6BOjGThDibfAQYoBAgrtayDY1qFWslRrrPmsq4dwF+p3Yj9iMIIN8Aax0Kt5Bio05+qZweoVQwKVMzyGiFSg3TiJXDhIzgQYB1BFUHFjrPZ0LeyhVrJUaXzIq31FTB3C0FigPJtZLbOgCaBj3W6AzUSoHoRgf7HKnaAmSGJ/HCdgG2pHWwJkDKaqH5olLINQUsUkYCyBvuzPAOEd5DVCCDwSCwQ4QBsTIFFDAlwirBqIElYUrvoGaAbsB8mnBUBFvcnLCJPFNQBDtYglKoGcLeIlboIgD0D2FIJi8XVkJnzyzSEEAiQ3APbmewA8n4fF0wk6wC5TW9WgwCuVnQFgx2gNMZOpv6+awgn3yzpjGcSQMgGFm0qsFEnQNVCwrc/eQsZ+PxyVihVFZbrukqREsCfsHOElKOiwg94BLCLvCB1iJH0VNkgI0BwLWEjwT1qGovDRwCRG6wSsEs9Rw8BPA+BKwm7R0kxpWok36yzwpnAA8DG4JYZ1HaAueWE6o87qU5yuMbMAqFSlQDjQqVqSgSwVRM2DWpQ21E+Ai48PEdoVCVgx+wQHQRweQUE1RM+/u+rDuQ7A9eWEwpVi8GwRhZTIEBAJ6H6a/JoXV9E2zjV8IV1kqH/FbB0Jpn6W46Fqxf7CDzWu0KhqgH385mslwCLBxE+/vUbtUgNtwspEFYAWksprdJFAFsGod9ntcYO8pW6rq8CLoAT7MgcQrgzwBtFhI//xLlUhd4k1EntYarRToDSGEL1x2qO3knXc3QVcAcmRitaKwG2tBLq/4Zmkf3gxiMiIlwTcjGPJ8FX8yXtyNHR2eFF7XFkAt6o0XylatWs/pkDdAgcAJ8w7RFClzTfAQQ5gpO16n9gqR6B4YQmNVWuBVzRiNGSciffcdrUHxepS97g2ZLe8mYCbsiGFzRe8YsZWtSfcEanuNUYk4JQpFZg/AHKtTaCNOg/RG8BBxvmzNIpFKkVmRiznXLvhVi16q/UX8MrDDP0UaFIzcC57RSP6rPUqb9larhuWeeO1/rCEsBiMS5DV6mLsJ8qS0BFCgVZR2EGF+UB9QAXt6X4Xl1Lrv7ZVPJ210ja7VYCWETitKb4zBKfAsqnUJEUl14kssL1Aee9V0wSiiJTf1EUHTlTMeO3ChXqw3qNxTpxSdruyL/Rm46YEQ2ScATz3QIWKebbK/cAjaeWs/8ZZgYRDMpuC1B8CWQq5H3tGUBNSKzlMUsoUDfexy2uUvtGFBwio/6CgYXURBxTgDMv2YT+dGMOVofKN+yt2O/OX09PwhnY8jKiSQgNbMcGbipb7yObYb8P1Wx9bJyxqApCBX64EzZRP+Z5k7zV3zGFpnxnsNvMGKE8tkcsaS2RMWmgW/3H6WfSqEp3Em9iEqqjBLxVj7AV25pZ3yXG5jfEDtleTbttwxHsASD/iNAcJdTh3XhRBouWFqurpKAAGUZiV3lRiqGChePTjEcLtdHDYnxC10wjO7HY+uHtDClCbRRRLZPGk2acWBPxYoni4HSRjV/q0Yal3sr4m+KEDZAu/GWyerNnGCPTVBlLs3gB0MYwmdV+1YhzgG2izqLiAuqwXa6Wyyru4gTHywUZCnUxQLPMipfx7suaJudrLhO9AVggUK6yWz7f4NuIaXJdZUSbaDb4WK6udwHPDLxDK3R2lRHQBNmUP3tnb15ynJLtLjZSKIoZ3pev68XJ+zJQPsU4QOiJ3dG7WXbty/I4yBAoL8NMUQ2CJfz2yDf162BugKuTby45fqNQElNEKiT91fuznV+hymzoGqEi1k9ggUKux9pgdpM/Xyk/eUEfoSDm8FFq8tR3Kau3fz+Fme2iGAwPRCtm/AxiYYnLrFVMOa8WyuGCMOWkv1rqk+ZVKk66VqjGPAyY2VZKcUKbD0GHCeEB5AeSKmANnbQq9GZWExQbsG8VauGINqLk/y00YsCLa4naC0ULpXDFYLL6D/F6s/PGpJP1FhRZgLyRR9j0sSxpnWbroH/yq2ST5K8TCuGONbNJqwDt6dASoTdl83LSCcpOCnUYgMXzySuBxcZcV+WkW9OeraLI5CqhDEMQXC6pQMuQG+uJXga+WSFlagYeWSpUYRS2qiwIW1Z+Zqmct6g0anBnnMoxRRkoIzG0RkNZ6MkhL85blxvZ6O87IxyhtIjAxm1jzvaZNSJ7tfqxJgwVSjAUxfGSkRind/uP3Htj1JD50yr3LJKk/LIVsXGT4ks2L7VOp2FX+cv6zk8MSTp2pg/frJjNxqk/QY/1J21pbSJ+/yoKCTP51UJW/hVDJr7ELVL/6CSD9D9a84M6ZUEMwVEjIbHdpJWmyeQPjV97lo88bUaoP1Sr8ydgnorX1up008UYqZJfSpzHQ6aN/DeBIdpiz3r3GZegcqa+7SZqOaFB/tYOfw6CZfBVf5m2IuCBU7U1tMteYA71a5V/OIdQKf8Qfuq3T9SSkG7L61egecrWDsPzDXXJP/alQuYCrovjpP9YTZWpUit1Tjso11D965W/oYN9Ev/gCRzUv3CzFtEG9KVhdTBuF6Ai/0Tmh5neg/syVn/NVi1R55GUDqmhU43JO6Mlvz2JfTGX6N0M1V/5ghaRfLfQk6DVgMhjmvLPZt9Cx1Y1jZH6i+ZpCS2xVS+iKsVyzpdC2vLXczAU++QwUH/zu5pk2ZhNXZJknvpnIH9nOHuxG7fTpW3oKG39BYKTQ1lsRdxckGzkj+WRQRtQPZ2awNNSNZ5d/FndTDmVoWQmP5+TzBvlDRRkrcjQHPG1ZrXECoN4XAcYyh/CKYzqbIeufaAhZJ6OQrSDJYaYvJj54jGVv5LbaywiWl2IX/ebduDzuiYuYWuRaGVtGGQsv8QzlT434311hsy4Eh+dbWUy2Ycq7WW5ZBzk55xMX0x4N4wbtemsfsdFab3EHgyNKlzkf4EvAxTcha1x8emb8ihdUKZM5uKWYpaQykn+VBMQIK5XF07S9VRFFKkJ+IgvWXtm8IC8XterqjNqR2SrcbkzqknJTf4XjSdAAovrM6k/oijdp9H764W5YctIV3Eqsrb8yca/AugfpouJXJINSXuLZQYJCiM7s8xC1pZ/q+EEyKBuPiVIKg191kfZreybSvAmtvtYXP69RhNgEO15lin+6BVhpOallCRlXayxtvxSncEEyKfsm3pO8cU5WE1V64gOJXt2mb+15U9YbywBKNsjXlAy4Km+vE9JV3KuFVtbfl79NXAEoPoOGCMfOBvaocWJ0zhcfgWHW1z+0TZDCdBCMWA5bazsL12mdbc+FcvHHGCQ/B3GWgLD6M0ha0AvO6XjaC7bpKAg19ry2583lAB9qU2xSTaYT5+1sU7Op7mi0Nryz44wkgDULiKRLTIkf1Hvi85XLjqvv8Xlz7YZSYB+lGaQe9G9S2F8ufDsaIvLn2okASg1epVpJRxKZ5ORuVCV+Vlb/gRfIwlA5Sa4EX+DaqB1SJPR0SiLy19uJAEkGgFq+BCK1duo/YhU/G9YY3H5o4wkQLb+4bPwz08QxV+BX8HY3taW/1WbgQTQX+x5Shknbw2+bdVai8u/yUgCLEzTOfoxbtGv2PqoCcXWlr8hzUAC6D2DpCVwi321Yc11tRaXP9lIAkj6rJHY4+1A+j8kE1cHY3yAteUvCzeSAK16LqIBuAcojkVHa6zF7obF5c8wkgDSZB2/NRkzZj6bCmm4o/TscGvL3xpsJAGkJO0bQBnn5JeRdA2qppE/zFACaE9azmLpooEQgYmz2m1x+WuMJYDmCFtMHG0ou1gnnON2ncXlv24oAaQCbT6PRhaWGYW7VBxFj4CJ5H/WWAJI+ZoM0iWsA00ARGF+QKG15ZdmGEsAKV+L3Ws1oziTo9Xpg0bGhMGm+FH0zjFmkn+rwQSQ7OojK/bCIw3Re1t+EkEzHdqXFsPe20nI2vLPN5oAGt58mFSaPH3iutnm0skfIfUHN3PJn2I4AaQQlRZV+EoTR/WmXOH9iRRae6i55J9qPAGkWFXFOOvgQXSV+A/2cphsJ7WmxKudy2TyN5uAAFKCmuIlcMR7K21LWRSp5tR6hMwmf6kJCCBJk8gzFivpe9GgZ6Pe+2NjqfjvrS4/GwJIUtJcsmFT6EcZ9gNH9K5X2UnDpWE6+UtMQgBpPJlzMgw+RlBfPyBiKhL8XKW62Uwn/2SzEECSdpNkQyRRDm4JxgXMxHh/djeFl6jp5LcXm4YAkhRXnak0LBxNHUn7+QFdcx0ULvDmk3+YiQggSQ3pkRpu0bPprx8UtVhH4ek1n/y1piJAV+ptkg/exTKHqiPdhl8/6HCUWaA71dGE8r9vNgJ0+Yknp8+Dq8YPAz+/mf76Sc+Q7t+qrvAmlH86TwJ8pqIjSkP9iLY+uUGBbuHra8GPasylGSTnp4ROI1PBj6oJbzWh/Pk8CRASzKIqdij95we2zPhITGCw/P48CSCTqaIdcdSfHykffKyD2BDAYPnr+BIAxVBfwBBQgFMDs/dINcPbx2hYP9zdjg0BDJZ/M2cCoBdpLyBUBPtsd/OafnNUr1+VKkO+xeU/xpsAqCqf7gJ6RxXZau2ux8nr6t6fBdhw5UQmBDBY/iTuBEApdJ+kOkWb11Y664cLq7G2/CH8CYBK+9FcwFzl27Z7Dkx/TfsnQmg7EwIYLH+8AQRA6KUCegvoeY0Onun9mcEUnh+cIcDi8o82hABo3WxqC+gZmJkBfShL5/npAWYxIYDB8scaQwA0d6Kd0gLOILF42hfofn5w3nyLy99qEAEQiiqis4AeMwdgPvZwBZ/V/vwgNI8JAQyWP9QwAiBbKo12w5JHmn6jzNOh6/lh1d7VYPnzjSMAQr7LKCygR9fRN7Af9NH3/LB6BRgs/0IjCYDQ0Pd1L6CHNyMS/0l5Z+Qzij+qjQkBDJY/1lgCIHQoKZTqNcpX2ygFBOUKuFwDecs/2WgCkLQ6UmVIWchq/dBALoYgzvJXGE8AhDKfGal9AT3DGju1DEJUn+d9JgQwWP5+ZiBAVwfNrByNhgHPjAL/AjbPD0JsmjwbLP84kxCgq4Bmn04tfdS9QuBj2Dw/CCUwIYDB8g80DwG6EL6yPbFV3a/3qq2QWc9m/SKY6N9o+cPMRYAHmLIyNSl7POnP9652ltasav2eIRTrYzYEMFj+OhMS4LHXOMK/MfKNdb26MRH8Cd5NsNLmM1g/TMnNBb3IYUb5A81LAG/Aca1AS2zyZ6iAvFwh6IdrsVlbfkauAEYEWAWuAVQTJ6CZ+vqhMt3udBPKP91SBEBgOCEYV022ggV7yeeGbbRJFpc/xFoEqCBxpzxEYTa987OMK6ja4vLXWosAcC88uNpgeD3N/RMXE5xrcfmXWosAcKXtHKRpBdWtnx9oqLT3trb8BcHWIsAhcCXsEVpWUM37Exeqp7ZWqOnkz0bWIgCm424bzq44hNbzgxBccTvZ4vK3W40AcK3tItzHg4dQen5wkVrrLS5/L6sR4HmVvwO3gmqfH4yHZo/F5Q+1WY0ANtgjh09vCU6k8fyguS0UrADmk384shoBcNW28VU2eidSeH7Qc/C0fSwu/2brEaBKUm3QGqndf/IYM+AHd1G4teWHTVDmJkAm7Ca2y1Q68XyG1D8/mOI+UDlGS8nPsGkQMwLg4mWWyb143cLsWtV7wOdiolaHWlz+PlYkwEnMvUi2HfHS7vv3KA1da0fAU8ZZXP5WZEUCYCwaSgkOVTldH2qI0VKWFZess9ni8ndakwCbMT9nltIXU97QGP0yHTPjDIvLH2RNAhSHcv49uGbP5RaX/zNkTQLgWi9KsZlMfkoUJl/BnmJt+VV6sk1EAN8WzC+ayOKXpOGi1J+1uPxDkFUJgM+ceJfBL8FWt02xuPwrrUsAX1zyVEIk9R9Si1u/fhaXfzmyLgHQd7hftTCC8u/AF4heb3H586xMAH/sz5oeQPVnREkMNgBTyJ+NrEwA/MYmJdL0cPuX4abJP2Jt+Qu2WZsAmBZeEt3atxGx2FnaLC5/OrI4AXrhg+X696Y0x6Ea7BxFNmvLP7vQ6gRAW2Tyrem8RyOx+6dkH2pt+TGZCJYiwFyZ9PHJNOIc6mSq2sdYXP75yPoEkO3gU/OG7uFvyAzfN8Da8kuRPYEAspVUCjL0jT1DrjdES6S15WcYCciVAJnT5H5kvJ6muLl7OKyfYfIPQj2DAOiobO+ZVs0HnRkxsvXK4i0u/4TCnkIApeLN9Zq2aluWfJGqsWnWlr8lEvUYAuBt6o+wvVT1kJEKKbmhQ60tP5cDADcCKPbxKpuqLoTybH+lnPzrFpd/FOpRBEhTbDrRMoo40sq2d7liSY5Ui8ufaOtZBEBHCEorTzrjRzDSyc6ZykMlWVz++kzUwwiAIonaUMZXzZUfJflVkmH6WVz+uFLU4wiAlkpkiEsfAEdbbAvrX0Y2REWAteXvG4F6IAHQOvIazgsrJs4aFhU5JyITpfk2Dl0X3R4ynfzbjFoscpO/Zg7qkQRAQ6n0nlLEIFbnJ07yT+P4/PMlAIpczWH9ytmdn7nIX1GIeiwBUONM5usXw3K1OMg/DqEeTAAUMZnt8hWksl0u1vJLJahnEwCFj2O5fA11rNeLrfwqC9pakQAIrbUzW77dqzisGEP5F+aip4AAaFg+q+NTGpclYyZ/vR96KgiA5ixnsXz5GbzM52zklzpt6CkhAEIvLKK+fDn+HFeNgfzjfRB6egiAfEfSXb7V0XyXjbb8UnkEeqoIgNAzYyku3wj+b0+q8seuQ+hpIwAKv0HLspodZMTK0ZM/oa03egoJgFBEEo3lqxlg1NrRkV8atRihp5MACG37TO/qtYYZuXr65U8YaKj6jSYAQo0Dx+tYvoqqYGOXT6f8e26UGiy/4QRAKLw6TuPDkx6ETADN8kvLq00gvvEEQAiN2a7ez5qTFYDMAi3y17SvMoXspiAAQra8cjU93ydn+CJTQaX8ZUlRZpHcJAToSsGbV15JtPPn1B5FJgSp/NL0jl4mEts8BHhwsfLprG+RWbsJ48LW25B5oSS/NHvcvAhziWwuAnSh98Y+qTE5K9ydrg2T32+fl1uKLABQfqm1vrw9OsrXfOKajwCPURjh37h+zbrcbat8ZyAL4rH8kY2BfoXmFdO8BBAQBBAQBBAQBBAQBBAQBBAQBBAQBBAQBBAQBBAQBBAQBBAQBBAQBBAQBBAQBBAQBBAQBBAQBBAQBBDoGQQI8AvcuH7Nx5GBAdZc2SV//+HnDZ//5/APS0wtZjmnYtsqcChvU3riBLeY6tjl/Z/bWrfKGpq//PZ/b1444XTBvtuXrnz645+XzSjtRIgAQ4ySprjP1CGhMnkVlZ+1rTGz7r9+5839Thmc+PX85yYTGaxxMN8QUXySiGrp5+esXWdK7f9x7baTAK988sU/TSR1OliyhrsYtl7flalIrmyICTKX8m2/XGtykqPpX4fNIvkxaH1nchYiqHOF6vTqSdGZplH/hg8OOtXit+Mvm0L2l8AHjKsIC+olTUhISjHFEh7/zeHUglduvW4C6eGeiOHc5vfvaNVRYqWf4YnWlz/9Rpv6u+D41fjTwHVwYXm9YVf1l3Si+RkjV+/nD5068dtbBhMgF1xWPmVLp5TQqLJWaVilnb/fclLATx8ZSgBfcFFvcJg5OLVMooMiQ2wDv59vctLBPUNtA6DdZQT7eU/VUCy1OnEu93V75x9Oenjva+MIABpf6lnP6vc+3VrLZVv5Vo7Zca3rDEft/5xNPxpW+Qasdbma9d1jvEQbzY0cF+2Xgw/0//A/FP7pcDh/+9kgAnSCy8l0Nf2HMGkYMZjXkr1889Fz63hX0PrUAAAU7ElEQVS8C3T/Q+vfnY5dx40hQDS4miwr8OYlSGwQwsc2ePj2o2ff0b0LuP03Tf/e4XSeNsRxfBJcy0HsJrzBrulS30gOC3Z1l9Pl+Xd5nGX/neznH//npw1GMEDiawzewrTt2mbmy/XBoy3bXYMABWT/G8wHh/MrAwgwHVxJRg3MIpolthjIdrHu//bo5AZpUM1DD5Gj6x8f8CfAdnAh1zKZ62iNxBpMW8ce3vf45Can0O6DHf6h93z/P/nOLe4EGABb11hMlcKj+XIIuxv1hqYnmlPSP8lnYHKc420RmAKvI4Pz1NDxEg8MYtWB5/NXXJ5UZf3LPvTgDvDwz4d/cWbANLiNIfV5osivfwsrJs4aFhU5JyITpfk2Dl0XPTWkmbxf5xA218G3d7k+3LL6P7j/vfNXP99w4P4StOO1nzf88u2b5y7eVdwBHv+L/ZxDRZ6TuEQF1RFqMC7GZwo4QFBYyGyyIUYyMf67varx+/q9m1dhy/7hr87tg3cIT178ypcAveBVpNyIeyiR/uPnFcuOsi05lqgNI4P93+2wjtsBLnwr79Y5fOe29zvA+05wmi8D4K15C9U5Ahcqq61+K0n/xzElMw24DV5ugu98rrr77av7JCfJDw4q3xdvciUA7JkroFncPk0x4rsghDgMyVY1XZEBlCMadpzAaKz7r+eIA33/9sf3MveFh7vAeZ4E8GF+o7ZVKOgrNEld7+c8pQGlLJor9NclJ2DAf7J9Ox13bx1Qd6Dc724x8N4Fjhv/DpDotTScqKCtZwPVnymVDgNnKS7QOdDa1/2PKz+oHvLP225HCu8L4n84EmAcvITptMZ/QV5V0zS10OqdKt/DfSG9KKGd3RryMuE6HRpDun7f2eRqM/S+SnKMEsqDl7CF0ikgRS7dT1qtOZjH7ztZx+JwagbAu06ZHaDpR62Gm/u3XLTvvQt8wnELwCTmJFEZPLxIVk16umitlDUMtNFZnCUnHJgd4IHVRs+D+s99+B3AwfMgOBVeQftQ1gcAe60+y3eE3GGwgI5L80NX/5/Hg+q48zddY9/fj3Modw3+JTcCHMJ16KQwdpVc72/9eb7tMsOvoNFu7COH50m9W0/79Gf2vIlzFzuczn/s4MaAeMwSbtI9coSMB2AajSaKeTInDArvsB92ub+nXXeAe/cpyP/2Xbw7iZ9v+HlcHrZuFYXIWP7otNMbir8N2PX7NC/gT+qX6MTwfdmEdyzwyyKfjPOtsrlgPLj805I9ZSx2Dt2lLt7C3tUdv/5OSf6fD+IiSpwXuRHgGdwS6su8y6xhuT0/hm8RK4PgkoPd4dseCqK4Pd+/jQkUc/AzCNp244y0ujKFO9k//w8YgPUPzU7TNfBNbMznFZryv3YQF1O4j9s5EHtYj9VRpi2FvZXmIYKw5wBd5swN2IBOylaaw7hzAEe/IHYbHaV9TGwGYBztoJ1c3F3A7q9j1Cu449k92kE7X97FxRYf4EUAH+zTGq11yI3YXE5ffjvYd9rHfB0T0evcd5+6/G85MQaB97htAVijWsFSjSOW455KFnXeknDSayfbOYxOHL8wkP8WJpz07mu8CJBSgPXWa3LXoUCcryaZhfiZRbRPAZdxu/IdFvK/fA+OEeJ4CtiOr8un6SqAcwIwKkS6qgHj1PTTOOBpzLlsPxv5L78Ch4ze/TsvAhTig+1aD6kf7ghmrLGsynngTjHPad4AwLB+Zo76tzBRgp9y2wKG4c12e9RXDEjGDHWdmfzLMAUFSzWN9iYml+cdZvKfg/PIdvHzCclUbVut2qxew8UC4HboCKVpzTwI5Po4HSzjNA7chU+d/OqI+cpEWTWoPAnWYcZhWd4T4xvO1jLW29DTz/hefgeOOb/EjQByvhspP0/VUJhAw+0sxQ/eA086R6cRyEUbTPO3fz8IZ50f4MeA7XIxVqkqBirGjOHHVPxqeNJ29SN9fRcMAbnLNlTzR6B+jMPpfJMfAZBszkUieXhAGHMfIIRwuPJwjfqR/gvn+TIO0Xh5H7gDnOBIgEDZYOvVxEZBuBKY/d+Mxa+F5X5e9UD7wSsZc8v8He/KIV1/+4UjA5bKB/GnkzkHC9nElyjCL5/OxrMDTun/kLX8970zxrr+wrVuSK08A2YSbQIY38zHzKWPAefdrXaYq7AfkH26zi3vGjNdFaV5EkAujO/hY0yQMwb7gV5lL3wQLLPa2Mb3QP3fZi//Ye+k8a7/u8+TALYcpV4dGYrR/A2GVSGPA2eep3KUfWA1Fx6pGt+DxqBvuW4BAUVKube7o+UpEAUfAX05CN8mUah/vgFO4efhmT0PeqCucSUAiqhU7tOQJVeL6Qb4nQou1xjQCT1B4yXQbTvez0P+H8AQtBN8CYACCdp41VRnqjwCvIA9u1cPLI+PLx/4whRFyU6ujQnJGTRxKt4sCb/A1N0/r3kbY7jZ5PeDQagHODOgkaSXU0LSG6pexJiTWJWLzSBngJxUabXdW1PDd5hWshkUDgHfg48hn9icneDc3yLeDCBr6FKUAdl2beA2DPejjJrv/qlJ2IzU3mfck4EL0sHIgqH6gwJsd53G3AG68CW4A3zKmwBoG2FLn4LmkuueDvdtxNYYW4f3URFTpnaKd53h2VD+rw28gahqiH0YtALwssa8Ah0DP+ROABSpoqlTXElW1AwlM9AC4L7Rn7jKWyR4LKkCPjmSfPvB4FvwJM5rF/4VYt9t/gRAq2IlVWitSErO2Bo9oM/KUaQ1h3KI04Y2YurMVpFeBJV/75Kv/9+By4c3fPmff54Gs3V/4LTu8EXQAAKgtHiaNXxbvScYhftsiecn5+KSDEO9z6F1qgNRlnx04YRbS08oWXMfr2X/E5zfmJ5C7RQJ4B2XU43/sGfrSnwlEO/sv0Dwc8OwP/Kvnd+4ax8OBuYWl3MAnP+qIQRAeYuoEcDLGBcgU+HHw3sjF6nU4SW0uopBOy55NnGDdwB+KTpgMPJ5YwiAAuNoEcDrcC/rdnQL5LTJnUZCvcwL04jeKo/w8kWHexM33A7wBbc1vwfN/4FBBECZSZQI4GXikb1lFCm/1bGJRoPUeAOuebVyw+wA/No8X4GCEa4hw1CVT4UAnlHFH7tVeD+J0JhEXCBnutuWPwWhaNc7YbOnwGBMQH/4x70DVOmEdwB+pTtvQl0lrhhHANQ4mgYBPBMLXHqHh/Z5+K8WuHw8w+WjLsG+cY/SvV3zzo54jPycioS020rNfp78e3493T6FZNiPjEQGBQLMwR/sn7zwXbyIId2fdG1x/qSqsEtVo70eI6+Fpp8O/rD/wJVZoB3gMrfV/h8kw/eGEgAdqtBNAE+nQffBrqzb8tD98dEuRkCoWsU8fLj6JnKH8B0oChsu2sYtRxPthIwRJ5DB8NHb8g1/BnSx09dDdiOXM2B3g+Aj+PYQg6Hpx4O/6hy+SJ/nH36dfI5DLUleQYYjrIwqAcDzWb/uRKTufzkM8uqG44vYLCC3BX/iUG4ByN0W+y3YYcx4AqAZnXoI4Gmx695RpnX/y25/f2X3v8yFcnxcmh4fI7EwlsE3LmL9O/jl6H4E7UZNyAwIHKWdAJ4Bgcu7/6dtgKpdLMf+kFOvBF/QNpU8O+gmSQfIh3+4lWrpOgN4xyP+A5kD/umhGgngGcATAlzRJsE+YZdRHje2Xx+KrziQrGhZeoI/sG1gvf7GzxtzB+osfA+ZBcXtNVTsANEu/9uyB/lGxcMx0QPxXoGFua7nkUISO0A9bAjepdjY9fEfjnYASI5LyETIC9FAAE9LoFvP2taYBYOTynBHBreX+vz2623xssE+oCUwHm90IWv+ys8S+C/IMHkBmQppgwepNRB7mmuQbLSBWxZhhOzAVUS+gGXwD1lykKS9c9cffr6ADyHD5DlkNoQPG6eqG7SXNzCX/IVRQuo2egCwSeFEzM/40ukkOwfw8wb+n/sm9PC/vIfMiF4diQtJCeAd6def+MNzZbabPghvYXBBLe43vLVL2QjU9Q9+/VxB18QdZFYU1720ZToBAbycdmgOdgdpXUxi3PP0GTzCRtLgwUf44YKyHdDp4Fe7/2fQNfEHMjciq6b2mx8rl07S4P2lNZgrZYJ3SbIOzKjLw70+OozoEuJmetsnfwF48IebJeaqp2viwd82IAsBjssFSg3CusqHOpdvgePRgW7jcCCjfH3y198+f2fnj39c/eXLwwfuu1liuv/GyxDwJthPeomVCABXGQkDPpkLxAXOhAvTJgPpRp9Bas2GJl+hRv4/oe3A+SOn1bvkBDrJ/sNK+kdzJeKLmL+Xn3kkrpiDz2yi6l8B4OQ5auTfAe0ADk4xOb/fhd5Cn1iKAGghuTsGvesW8VkkU0o+oN21B519y2IV24+6XugHoR3gGz5r9zZ4EL1pLQLEqzqHPR/zyAa4p0ShHGlp9GePD38ZuI7jxyiUi/0Q2gE4GYM/BQ+iH1mLAB1k4bvdmLEqN/cQWVHniKCo9Udk/nfQDCQdVXcOA++CfK7iJ8BGVT9biwAD6NTq0gI4O3ysypsYaA7gUqtrg0eRyEfN5K2lf+QHNwvJ5TB1CaEZUv4U6ADNATy6OX8AGiFOW4wALrF9rhjIfmIbbIsarPYqBvkDHRyyc2z7QDPUcasR4AZpgjBtYJKIAlUOcx40CnJIEP4T9kj9YDUCRMJ6iGY+8Ui4ppnaYQ67hOO4qIP9g/gr6JM+gSyHmYSuW8qAi9OotAI8OIu7ZQs+/vN/rOU/7G2CotyomBcwKaXDGE/7Plk0kjJuurtjH6uFdZb+aaBLAddoJGpYCWtiPttZ/e103gDdOWMeymDsEz7g8ApIs+gbwDXC3w3rjNh31moY6rbbffyJQv7JVP5bYL8IjsFIFJFswBawsYBejeLzXpVC2W8BP7uHoT2Z/zUrEsDXLlEwytOwPqjzBD7G3x2eobkP/wtLp/AlB9CnjHqvel7ABP2On8tsxmhM1NACTaNdcQ/MexIYxK5t1HEgKZhngULK2ItRxyhWE87ABKS1hmsa7h24agi7yu079jnAaNR9S6xJADSTOIyXDp7FzDdL43j/AKuGsOsdewXMTTGuPphupGIUMv4Ik+lwVQfHB2gc8EewaojT0cTGLvsRJh69yaobAArH1QEcbWMwWwouabVW64i/H4R3AOdvLOR/fRcmO+UOsizacBHix+jPlbkb19QgTfOYO4GggAccYFC7/eWfMNHor+ywLgHCcYkf9gW0p7IlMiCbex9P1/sg9XO5DZOcwoRs/LAWmyVyivJMI3AT5etpVnzeAdaQczidb1OW/xouL3XX11YmQCE2cTA/iupEHVimzdIz7JKDTngHcO76nKr8n0Kn/weznUeWRhVWMeODKE6zCd/crLeuga86cHUEmw5TlP+/uMx054m/rE0ATA/pLqxeT++wacfO0kvn0BcgzTz42zf0gsTPY+vSMPY9ccAcfEWhhF6U5ojBJ6Qu0zv2D7twtYQdr9BSzr+waamGFghmfg6UWqpoTNBbplxNfoTu4XdiS8c671LJ2P7rnMO7ItSjP7vuW58ASK4N7RkK58whMuPPoiD/907PBKHuV8FX+odfst/pxO0AVj8BPkSQXFm5UQE6R4+UayXRTMNid/muR4qg6zH9ml4z7YbbDs/Bu/9c/KsnEABtlSsb0neorrFT5dg1fjEV+Y/jdwCH8yd9R8Gdu+DBH140XkM9A/3lGNDSpv0xjUiUrUmzlJL856AL+mMO3D2vXf77Fzzjjt22gLd7iP5RoXwn6maNm4BNoXh1Jy35Xz4BmeiecOCixk3A9tU3TjAE9NGfD1CPQW6BrKbsW7Qc1qOmKdSkouey23AXLhv1WHXXtBzWP7/nwJDq4f+7aOs5BEBZCgXE8juLVY64XqmnZVkgRfm/hQvHPVHdrk/VWuw3/OrSFAKKO2j6AfUkHFOqIbcouVDFcI3L7EqUGkNV/jchP52r7pr+p+Y+8PM597hv79jDV75EPQvKxYVXp5I67lPKlYsS1lGW/zRkCXIvILOT1HH/+mmZyqSPGPZnD9M/Cq5XVlpof59g5ZN/arPySHYf2vL/fgl4B3hc4O5eufq78sl/50VsJcInHHBcRT0OxZUk5WQbkvbKRY0HhQ0nqkrLIPfg69tOzAPr+vemW2/JnQYO//iJfH/iRxz4EfVA+E8grCk8LWYAUFKyMDcshLRnUTIL+V874ZBrMdjdf/bezbeAgj5Lvvzq3DdOpf7EDwf5H+qRiChSUVq8b3zJ2jODB+T1ul5VnVE7IrtVxXeT2ch//55ci0HXe4HT6fzpwgdffHX8rbf/+c4fH+28c+3SvieticFeBG4DfoF6KKZQ60Mth4IFrOTfcRE+sLnfCh8xwOnZkd7hBCsOeL1QHN+iHou0Zvb6z69jJ/+SS/jWUu6WAQfUkd6FHvgT4K5fUA9GQA5r/c8eylL+Jb8qXN88OtF7XxcxG8CTr+/bgHo20tnqf/ccxvLfkW8x57oDuP0dLjfhGQHoPHEA9XQMLmCo//hC5vL/2UTSY8grvs+76APwWcevS1DPx7oyVuq3r+Uh/4F7TrI2U1DzP/mvfIGeCqwqYqP/1XV85F/ynsJLAHjMSXrTNf2JnhIEt7cw0P/kxdx+wDv7CDvNQSZD3De+fw09PQiaRF3/U3nKf/+KcqthKJdA5htvoqcKtk0JVNVfcYjzDzje5CRvPO+Usf4+/LP/dfS0wT+Envpbq/jLf+A0sfodSm+Bfd+ipxG5lOyCBQMLDZH/y4symz7ufAj9Tx8sQU8nbFU1FEy/Mf6G/YA/Tsgf7wjOh45dty6jpxfhbXv0qX98+1wj5X/5/EEVuwDwt6Y3v0ZPN2zD4u2a1T/hTKbR8v/t6gWHml3APff7q5eRADrUqck2mFC+1ByB05c/bVL5Cnjwj1dO//mXUP4jy5BP/1CVVt+c6ADzyP/71St3CawCLlRwfHJ8idC7K9JeGKLi1t/mazb5d3z0iRNnC/LaAvaff01o3BtHspJeVVZ+Tfr1AHPK/9pHt26D50E3i8DBm++IZx+P4j5Th2ALS00YnrR5o7nl//qdN/cfxJ35T3xy66vXhY6VETC0qra8ormocuEiSSrb3ZwYEjN169KjlpF/yYY/7pzef/HeiYNNTkfT7YsXzt369Me3dbf+/P/wmao/+swjEAAAAABJRU5ErkJggg==;" vertex="1" parent="W7FsNv9sOyq8ad8Lk5w1-82">
          <mxGeometry x="12.6" y="2.915145631067961" width="54.1747572815534" height="54.1747572815534" as="geometry" />
        </mxCell>
        <mxCell id="W7FsNv9sOyq8ad8Lk5w1-40" value="&lt;font style=&quot;color: light-dark(rgb(0, 0, 0), rgb(0, 0, 153));&quot;&gt;GitHub Actions&lt;/font&gt;&lt;div&gt;&lt;font style=&quot;color: light-dark(rgb(0, 0, 0), rgb(0, 0, 153));&quot;&gt;Infrastructure&lt;/font&gt;&lt;/div&gt;" style="text;html=1;align=center;verticalAlign=middle;resizable=0;points=[];autosize=1;strokeColor=none;fillColor=none;" vertex="1" parent="W7FsNv9sOyq8ad8Lk5w1-82">
          <mxGeometry y="54.468543689320384" width="100" height="40" as="geometry" />
        </mxCell>
        <mxCell id="W7FsNv9sOyq8ad8Lk5w1-67" value="" style="group" vertex="1" connectable="0" parent="1">
          <mxGeometry x="71" y="888" width="106.71" height="105.66666666666666" as="geometry" />
        </mxCell>
        <mxCell id="W7FsNv9sOyq8ad8Lk5w1-68" value="" style="dashed=0;outlineConnect=0;html=1;align=center;labelPosition=center;verticalLabelPosition=bottom;verticalAlign=top;shape=mxgraph.weblogos.github" vertex="1" parent="W7FsNv9sOyq8ad8Lk5w1-67">
          <mxGeometry x="22.625384615384615" y="6" width="61.56346153846153" height="61.5625" as="geometry" />
        </mxCell>
        <mxCell id="W7FsNv9sOyq8ad8Lk5w1-69" value="&lt;font style=&quot;&quot;&gt;GitHub&lt;/font&gt;&lt;div&gt;App Repo&lt;/div&gt;" style="text;html=1;align=center;verticalAlign=middle;resizable=0;points=[];autosize=1;strokeColor=none;fillColor=none;fontColor=light-dark(#000000,#000000);fontStyle=0" vertex="1" parent="W7FsNv9sOyq8ad8Lk5w1-67">
          <mxGeometry x="17" y="65.66666666666666" width="80" height="40" as="geometry" />
        </mxCell>
        <mxCell id="W7FsNv9sOyq8ad8Lk5w1-70" value="" style="group" vertex="1" connectable="0" parent="1">
          <mxGeometry x="148" y="705" width="91.67" height="100" as="geometry" />
        </mxCell>
        <mxCell id="W7FsNv9sOyq8ad8Lk5w1-80" value="" style="group" vertex="1" connectable="0" parent="W7FsNv9sOyq8ad8Lk5w1-70">
          <mxGeometry x="-1.66" width="101.66" height="100" as="geometry" />
        </mxCell>
        <mxCell id="W7FsNv9sOyq8ad8Lk5w1-79" value="" style="rounded=0;whiteSpace=wrap;html=1;fillColor=light-dark(#FFFFFF,#FFFFFF);" vertex="1" parent="W7FsNv9sOyq8ad8Lk5w1-80">
          <mxGeometry width="93.33" height="100" as="geometry" />
        </mxCell>
        <mxCell id="W7FsNv9sOyq8ad8Lk5w1-71" value="" style="shape=image;verticalLabelPosition=bottom;labelBackgroundColor=default;verticalAlign=top;aspect=fixed;imageAspect=0;image=data:image/png,iVBORw0KGgoAAAANSUhEUgAAAgAAAAIACAMAAADDpiTIAAADAFBMVEVMaXEeiP8fiP8Ziv8gh/8eif8eif8gif8gh/8VpP8djP8XiP8ah/8eiP8Ai/8kkP8gh/9MaXEgh/8eiP8ggf8biP8eh/8eiP8eiP8fif8fh/8giP8fif8fh/8giP8fiP8eh/8eh/8giP8eiP8eh/8eh/8fiP8gif8giP8gif8giP8eiP8fiP8fif8giP8iif8eif8dh/8eiP8eiP8fif8cj/8eiP8fiP8giP8eh/8eiP8fiP8eif8eif8eh/8fiP8giP8giP8eiP8eh/8ciP8fh/8Ugf8eiP8eh/8eiP8cif8gif8eif8eh/8gif8eiP8eif8eiP8eh/8eif8eiP8cj/8eh/8Sgf8eh/8eiP8eif8gif8gj/8gif8eif8eiP8eif8ei/8ah/8eif8eiP8eif8eiP8eif8giP8gif8gif8cif8Uif98vf8eh/8diP8gh/8eif8gif8fiP8gif8gh/8eif8eif8eiP8eif94uP8eh/8ci/8gh/8eh/8eh/8gif8eif8cif8gi/95uv8gh/8ah/8eh/8eh/8gif8giP8gif8chf8gh/96uv8eh/94uP94uP94uP8eh/8eh/8eif8gh/8eif94uP8eif8gh/8gh/8gh/8ci/94uf93xP96uv94uP8eh/94uf8eif8chf8gif8ch/8gif94uP8gif8gh/8gh/93uf94t/95u/94u/90u/8eh/8gif94uf94uf94uf93uf8eh/94uP8eh/8gif8gif94uf8eif94uP8gif8eh/8eif94uf8eif94uf8gif94uf94uP94uf93uf94uf94uP8ch/94uP94t/94uP94uP8eh/93uf94uP93u/8gi/8eh/94uf94uf94uf94vf94uP94uf94uf95uf8gif8gif94t/8eh/94uf94t/94uf94t/93uP8eif94uf94uf94uf94t/92t/95uP94uf94uf8gh/94uP+B1f96vf93uP95uP92uf96uf94uf90tf9mzf8gif94uf8eif/0vNazAAAA/XRSTlMAUhgUQFb9qasCHgocKgQFqQD3aggWLjpLXpbZ3LHRt/P9ua1U74+wYPOZfCi/cA4yT5JyvAhiw4m8NkiWnvWzoMlC+zTkDGTVpizv7RDgjfecx4TNEoQO7aPVzxBY5XfrIBLFXMta9cHn8RoMC91GWKvHZunh435BRP3FIus4evnfPjAw8SZubKFoJiyRD3Ry8Pfb51TLterX+el2JMAIH+YiK2wagSSH8/uB12DfGSgUMDiDVUdNSqTPblDhPKp+h4ucetand4+xP2W5PLzMxom1OXsjPos1bK0SUe2fW054lJvPmZfZHHRo2375JkK1ySDUBhY8WW5EfBgEXagLGgAAAAlwSFlzAAALEwAACxMBAJqcGAAAIABJREFUeNrtfQlMVcf+/wA26WURHquAAheNGkBQECgQUYtSjEGiVQE1blGDGhEliFxcEhU31IoLMUCsS4w2VNtnN419GtL8avtqq10MrbVWbX02rXZ51tfX9++5+Qc37vKdc+acMzPnHJzPz9efr+/eme+d7+fMmfmuCDFE5nqftuditvRPrIjruzBBCp09Ydqk4YPKk0pqo6MikEBPxtCs9IpWSQ4J87ek9ioVK9XjEHB206jpEikq+6/NE5tBj0HmsJgiST1m9s/yE4tneSwO+0zSjvrkILGEFkZaVo5d0om4tsViIa2JdwdJdFBRHS5W02rwu1Ej0UNZySGxpFZCVLlEGzk+YlktgvCsyRILTGibIRbX/CieWiYxQ9K/xQKb/OlvGy+xREtJsVhk88I2eIXEGotmiSuBWbGuSOKBmnk2sdYmxMZ4iRem54rlNhvSYiSeWBYoltxUqGqV+CLhjHgPmAdHEiX+mL9NLLxJsDVfMgS1YulN8fbvJxmFbHESMB4fL5SMw6JhQgEGo12b5voOf3ZiSW1q9Lu9+iwIu/FcUkh8c6g247BQgZEIUH33X10/Yta7Kb2hwQLrwrbH16iNIFku4saMw6FYVbqqHBGt7MwpPPXc6AI1o+4ZKhRhEJY2qNjzk+b5km8seR2TVFBgnlCFIUglflCLao+qv1xk5RCPf0wYhfjDNoI0jqNjvcYpIjbXE54IPssUCuF9+68gC+ZLj9I1jf+saWTuIV+hEq6YEkeilrEZAfqnOpVN5CMWNiGe8CU5/sdmBdOZ7Y2RBG+CmUeFWrjh3wQh3/P3UjyZBZUrHwhXRwrFcMJGZd9vaxXlOVOUzxwNwiDAB4F7lFRRUFJIf9oFik6H1Y1CORzgV6mY0pnCZOLS7UrvgZniJMgepUqRn63sDHORo5WMzeI2yBqZ8xV0EJPGcvoshayTojShIqawKbj/ZtexvoAuV4gRCRZKYgmFpM9s9oVdbFPljQL9hJIYotYMQXp18rfQEqEmZlgqf/qL4iRGhLxx+F2hKEZYLJv4mTiX30kkWe5C2OAvVMVm2ZtlT/9cZcmTiyCcLg6CTHBMZs3tbZyFGSp3H9wulMUAvWRO3y17uYtzSM4hlSfURf/ktRq/3vnrDBDITyZUZPwRoTDaBwCZk3erMY7YQhkH4WgRJUgZMgkgZauMEmokXqgOoTK6Zy78AaDBuECMTBnnkAgOoAq8C7BljYFipeFD0+LES4AiNuHvf30MFcx3JlayDKE2ejeABOwyRxss2kasdTJfdByghhCs/ttJh8hNbW9P7cOg+PsafB0hoThKqMOucX8y5bclPtlCZibSDhddgJWuTqiOCnpjgwAnEMR+2gZ7muxq2uiG7WBz1Cp7C+XRQDL2ESMo19fnVej1nE6z4Gv4qzj51grlUUAg1vGWqvjdUtzpYfUCihIG4YpUhYooYQqYiNP/SMWvRspEkCdS9Npn4SaZKNSnG3Nwi7tCsXq/j2zZn9Ab9IQch5tExIboxiicBWiM0jevK+VxxFEz12ZOEDWkeG8ALyp98yRBAvH2AEpinhRbAOcTQI3SF9MqCQggjT1FSc4YU0Sq9TxEFGgNvR1JWvebjsU2DWMSDhUdRnRhKkZt8UpfjCav9hnG9CaQLJSox8aCCb1smaPwRZuaroHLqWQTY2KWW0WIsA6EafUBDVBX7rOdgqxDMWNnCTVqR1/MCVCxb1OOyoKvsRTCSpPgoacJNWpGndYggED1VZ8n6vYQRWBGfkMoUiuexWwAitFWWzXU/dZfVigdHniUUCTlR2qr4jdDNJV+j9fpu8HsO6Gi46xGrMUUgVA+V2tsIJiQqi+SExMZcEaoUhsqNUdbam4B0rxej8CNmJKFQpWasB6TdhXOkABSQaeeus+YV48IC6BpBSQJs4EzSMgoUKMjlG8bPGSbUKYWwMa8hDStBFiwlrAt0DjtXWDgDmbNQpn0LGvfIa0EGIDmDCFjQJlm691S8Q5g/QZYp5kAzyCE5s0mo0DFHG1C21o1Ri8KeGEyHAiGdBEAFY8iY0BosjYnzkBwtByhTtWYi2nPo5MACJ0lbDVWpKlH/Bj4bhEgFKoWGP96im4CoOD2FiIG2DVVnd0NjiU6jKpGfziOE+knAEJHyRoOSTN91MtdK4JD6QC+tb9EhQDKRZ+f5B6oLv+9CnY3C4WqRBC8K0dQIgDyG0fGgIbNat0DcDXpuUKl6lCty6quTACEehFGjc3fpk5y2IV1XahUHeDbWidFAqDMY2StQVs6VLkHonTcXgSeAL6r9aFJAIS2zSfbBCp7qbEFgQbnCqFSVZgCa6JUDwEGAB8MSyCjwCgV4f2JYMEYoVNVWAmqYTKiuwN0VXlaRsaA2eSdiOB6BqKjmCqk6uvFQE4AhE6tIKPAENI0v7Pg132EUtVghD57mhoCoIASssNgfhvZjRA+BLQLpaoBmGZjD2BCAIQip5NtAqMXE80OJiUMEkpVA/AhqkS6CDBA7pWTTxYosJJk9ueELVAv4ADrRMRoB0AIHSHLJi4gqS0EGrEKhFZV4GNw9dMZEgChZxYSUWCz8uzrRKkIvYCTuzcxJQBKS7eTOImVwwQWaw9lEngIuDvAUnZngIfIJUkoWaEcJZBgxqrGlsIWcOkPsSYAQrMIAoeV30TgpaJWqJUciTqPUZpeAQ/gn6j8ElDsULFMVAvSCTAg9FUeBECoqlUxSkRpiA7oWyFCreQAXfVD+BAApSUpHAbtSmH+Z6BvDRdqJQd4iurHiQAInX1VngFTtVxipgu16lRgOTcCoOBk2cNgkcLXfTRVNhRQUGCMzu8PUCNBo2wWmcJ9BCxtkyDUqlOBnfx2gAf7uEyr0sHyX4XbyGQKvepTYDJfAiC/LVgCKAQmRIJf8hV61afAVM4EQGglrt7wZwrGBPBLQUKv+hSYxZ0AKPNFOItskvzX5gpnAAsCVOn8/gAtkqTUa7kGiPxAnSjQ6U2htQMgtFELATJFVKBOgLfwMP4ECD8GvwLq5b8GFzg8JfRKjAadpZYovQLycNljCkZJuM2J6CNJjjKdcbVUdgDfZ+leAz8WeiXGTF1ZAXQIkCqTNKSQJQKnB+YKvRKjSGeRBf2vgNw4OVPwv+W/vFTYAXQCPHqP47cDlMqHByrdAvcKS6BOjGThDibfAQYoBAgrtayDY1qFWslRrrPmsq4dwF+p3Yj9iMIIN8Aax0Kt5Bio05+qZweoVQwKVMzyGiFSg3TiJXDhIzgQYB1BFUHFjrPZ0LeyhVrJUaXzIq31FTB3C0FigPJtZLbOgCaBj3W6AzUSoHoRgf7HKnaAmSGJ/HCdgG2pHWwJkDKaqH5olLINQUsUkYCyBvuzPAOEd5DVCCDwSCwQ4QBsTIFFDAlwirBqIElYUrvoGaAbsB8mnBUBFvcnLCJPFNQBDtYglKoGcLeIlboIgD0D2FIJi8XVkJnzyzSEEAiQ3APbmewA8n4fF0wk6wC5TW9WgwCuVnQFgx2gNMZOpv6+awgn3yzpjGcSQMgGFm0qsFEnQNVCwrc/eQsZ+PxyVihVFZbrukqREsCfsHOElKOiwg94BLCLvCB1iJH0VNkgI0BwLWEjwT1qGovDRwCRG6wSsEs9Rw8BPA+BKwm7R0kxpWok36yzwpnAA8DG4JYZ1HaAueWE6o87qU5yuMbMAqFSlQDjQqVqSgSwVRM2DWpQ21E+Ai48PEdoVCVgx+wQHQRweQUE1RM+/u+rDuQ7A9eWEwpVi8GwRhZTIEBAJ6H6a/JoXV9E2zjV8IV1kqH/FbB0Jpn6W46Fqxf7CDzWu0KhqgH385mslwCLBxE+/vUbtUgNtwspEFYAWksprdJFAFsGod9ntcYO8pW6rq8CLoAT7MgcQrgzwBtFhI//xLlUhd4k1EntYarRToDSGEL1x2qO3knXc3QVcAcmRitaKwG2tBLq/4Zmkf3gxiMiIlwTcjGPJ8FX8yXtyNHR2eFF7XFkAt6o0XylatWs/pkDdAgcAJ8w7RFClzTfAQQ5gpO16n9gqR6B4YQmNVWuBVzRiNGSciffcdrUHxepS97g2ZLe8mYCbsiGFzRe8YsZWtSfcEanuNUYk4JQpFZg/AHKtTaCNOg/RG8BBxvmzNIpFKkVmRiznXLvhVi16q/UX8MrDDP0UaFIzcC57RSP6rPUqb9larhuWeeO1/rCEsBiMS5DV6mLsJ8qS0BFCgVZR2EGF+UB9QAXt6X4Xl1Lrv7ZVPJ210ja7VYCWETitKb4zBKfAsqnUJEUl14kssL1Aee9V0wSiiJTf1EUHTlTMeO3ChXqw3qNxTpxSdruyL/Rm46YEQ2ScATz3QIWKebbK/cAjaeWs/8ZZgYRDMpuC1B8CWQq5H3tGUBNSKzlMUsoUDfexy2uUvtGFBwio/6CgYXURBxTgDMv2YT+dGMOVofKN+yt2O/OX09PwhnY8jKiSQgNbMcGbipb7yObYb8P1Wx9bJyxqApCBX64EzZRP+Z5k7zV3zGFpnxnsNvMGKE8tkcsaS2RMWmgW/3H6WfSqEp3Em9iEqqjBLxVj7AV25pZ3yXG5jfEDtleTbttwxHsASD/iNAcJdTh3XhRBouWFqurpKAAGUZiV3lRiqGChePTjEcLtdHDYnxC10wjO7HY+uHtDClCbRRRLZPGk2acWBPxYoni4HSRjV/q0Yal3sr4m+KEDZAu/GWyerNnGCPTVBlLs3gB0MYwmdV+1YhzgG2izqLiAuqwXa6Wyyru4gTHywUZCnUxQLPMipfx7suaJudrLhO9AVggUK6yWz7f4NuIaXJdZUSbaDb4WK6udwHPDLxDK3R2lRHQBNmUP3tnb15ynJLtLjZSKIoZ3pev68XJ+zJQPsU4QOiJ3dG7WXbty/I4yBAoL8NMUQ2CJfz2yDf162BugKuTby45fqNQElNEKiT91fuznV+hymzoGqEi1k9ggUKux9pgdpM/Xyk/eUEfoSDm8FFq8tR3Kau3fz+Fme2iGAwPRCtm/AxiYYnLrFVMOa8WyuGCMOWkv1rqk+ZVKk66VqjGPAyY2VZKcUKbD0GHCeEB5AeSKmANnbQq9GZWExQbsG8VauGINqLk/y00YsCLa4naC0ULpXDFYLL6D/F6s/PGpJP1FhRZgLyRR9j0sSxpnWbroH/yq2ST5K8TCuGONbNJqwDt6dASoTdl83LSCcpOCnUYgMXzySuBxcZcV+WkW9OeraLI5CqhDEMQXC6pQMuQG+uJXga+WSFlagYeWSpUYRS2qiwIW1Z+Zqmct6g0anBnnMoxRRkoIzG0RkNZ6MkhL85blxvZ6O87IxyhtIjAxm1jzvaZNSJ7tfqxJgwVSjAUxfGSkRind/uP3Htj1JD50yr3LJKk/LIVsXGT4ks2L7VOp2FX+cv6zk8MSTp2pg/frJjNxqk/QY/1J21pbSJ+/yoKCTP51UJW/hVDJr7ELVL/6CSD9D9a84M6ZUEMwVEjIbHdpJWmyeQPjV97lo88bUaoP1Sr8ydgnorX1up008UYqZJfSpzHQ6aN/DeBIdpiz3r3GZegcqa+7SZqOaFB/tYOfw6CZfBVf5m2IuCBU7U1tMteYA71a5V/OIdQKf8Qfuq3T9SSkG7L61egecrWDsPzDXXJP/alQuYCrovjpP9YTZWpUit1Tjso11D965W/oYN9Ev/gCRzUv3CzFtEG9KVhdTBuF6Ai/0Tmh5neg/syVn/NVi1R55GUDqmhU43JO6Mlvz2JfTGX6N0M1V/5ghaRfLfQk6DVgMhjmvLPZt9Cx1Y1jZH6i+ZpCS2xVS+iKsVyzpdC2vLXczAU++QwUH/zu5pk2ZhNXZJknvpnIH9nOHuxG7fTpW3oKG39BYKTQ1lsRdxckGzkj+WRQRtQPZ2awNNSNZ5d/FndTDmVoWQmP5+TzBvlDRRkrcjQHPG1ZrXECoN4XAcYyh/CKYzqbIeufaAhZJ6OQrSDJYaYvJj54jGVv5LbaywiWl2IX/ebduDzuiYuYWuRaGVtGGQsv8QzlT434311hsy4Eh+dbWUy2Ycq7WW5ZBzk55xMX0x4N4wbtemsfsdFab3EHgyNKlzkf4EvAxTcha1x8emb8ihdUKZM5uKWYpaQykn+VBMQIK5XF07S9VRFFKkJ+IgvWXtm8IC8XterqjNqR2SrcbkzqknJTf4XjSdAAovrM6k/oijdp9H764W5YctIV3Eqsrb8yca/AugfpouJXJINSXuLZQYJCiM7s8xC1pZ/q+EEyKBuPiVIKg191kfZreybSvAmtvtYXP69RhNgEO15lin+6BVhpOallCRlXayxtvxSncEEyKfsm3pO8cU5WE1V64gOJXt2mb+15U9YbywBKNsjXlAy4Km+vE9JV3KuFVtbfl79NXAEoPoOGCMfOBvaocWJ0zhcfgWHW1z+0TZDCdBCMWA5bazsL12mdbc+FcvHHGCQ/B3GWgLD6M0ha0AvO6XjaC7bpKAg19ry2583lAB9qU2xSTaYT5+1sU7Op7mi0Nryz44wkgDULiKRLTIkf1Hvi85XLjqvv8Xlz7YZSYB+lGaQe9G9S2F8ufDsaIvLn2okASg1epVpJRxKZ5ORuVCV+Vlb/gRfIwlA5Sa4EX+DaqB1SJPR0SiLy19uJAEkGgFq+BCK1duo/YhU/G9YY3H5o4wkQLb+4bPwz08QxV+BX8HY3taW/1WbgQTQX+x5Shknbw2+bdVai8u/yUgCLEzTOfoxbtGv2PqoCcXWlr8hzUAC6D2DpCVwi321Yc11tRaXP9lIAkj6rJHY4+1A+j8kE1cHY3yAteUvCzeSAK16LqIBuAcojkVHa6zF7obF5c8wkgDSZB2/NRkzZj6bCmm4o/TscGvL3xpsJAGkJO0bQBnn5JeRdA2qppE/zFACaE9azmLpooEQgYmz2m1x+WuMJYDmCFtMHG0ou1gnnON2ncXlv24oAaQCbT6PRhaWGYW7VBxFj4CJ5H/WWAJI+ZoM0iWsA00ARGF+QKG15ZdmGEsAKV+L3Ws1oziTo9Xpg0bGhMGm+FH0zjFmkn+rwQSQ7OojK/bCIw3Re1t+EkEzHdqXFsPe20nI2vLPN5oAGt58mFSaPH3iutnm0skfIfUHN3PJn2I4AaQQlRZV+EoTR/WmXOH9iRRae6i55J9qPAGkWFXFOOvgQXSV+A/2cphsJ7WmxKudy2TyN5uAAFKCmuIlcMR7K21LWRSp5tR6hMwmf6kJCCBJk8gzFivpe9GgZ6Pe+2NjqfjvrS4/GwJIUtJcsmFT6EcZ9gNH9K5X2UnDpWE6+UtMQgBpPJlzMgw+RlBfPyBiKhL8XKW62Uwn/2SzEECSdpNkQyRRDm4JxgXMxHh/djeFl6jp5LcXm4YAkhRXnak0LBxNHUn7+QFdcx0ULvDmk3+YiQggSQ3pkRpu0bPprx8UtVhH4ek1n/y1piJAV+ptkg/exTKHqiPdhl8/6HCUWaA71dGE8r9vNgJ0+Yknp8+Dq8YPAz+/mf76Sc+Q7t+qrvAmlH86TwJ8pqIjSkP9iLY+uUGBbuHra8GPasylGSTnp4ROI1PBj6oJbzWh/Pk8CRASzKIqdij95we2zPhITGCw/P48CSCTqaIdcdSfHykffKyD2BDAYPnr+BIAxVBfwBBQgFMDs/dINcPbx2hYP9zdjg0BDJZ/M2cCoBdpLyBUBPtsd/OafnNUr1+VKkO+xeU/xpsAqCqf7gJ6RxXZau2ux8nr6t6fBdhw5UQmBDBY/iTuBEApdJ+kOkWb11Y664cLq7G2/CH8CYBK+9FcwFzl27Z7Dkx/TfsnQmg7EwIYLH+8AQRA6KUCegvoeY0Onun9mcEUnh+cIcDi8o82hABo3WxqC+gZmJkBfShL5/npAWYxIYDB8scaQwA0d6Kd0gLOILF42hfofn5w3nyLy99qEAEQiiqis4AeMwdgPvZwBZ/V/vwgNI8JAQyWP9QwAiBbKo12w5JHmn6jzNOh6/lh1d7VYPnzjSMAQr7LKCygR9fRN7Af9NH3/LB6BRgs/0IjCYDQ0Pd1L6CHNyMS/0l5Z+Qzij+qjQkBDJY/1lgCIHQoKZTqNcpX2ygFBOUKuFwDecs/2WgCkLQ6UmVIWchq/dBALoYgzvJXGE8AhDKfGal9AT3DGju1DEJUn+d9JgQwWP5+ZiBAVwfNrByNhgHPjAL/AjbPD0JsmjwbLP84kxCgq4Bmn04tfdS9QuBj2Dw/CCUwIYDB8g80DwG6EL6yPbFV3a/3qq2QWc9m/SKY6N9o+cPMRYAHmLIyNSl7POnP9652ltasav2eIRTrYzYEMFj+OhMS4LHXOMK/MfKNdb26MRH8Cd5NsNLmM1g/TMnNBb3IYUb5A81LAG/Aca1AS2zyZ6iAvFwh6IdrsVlbfkauAEYEWAWuAVQTJ6CZ+vqhMt3udBPKP91SBEBgOCEYV022ggV7yeeGbbRJFpc/xFoEqCBxpzxEYTa987OMK6ja4vLXWosAcC88uNpgeD3N/RMXE5xrcfmXWosAcKXtHKRpBdWtnx9oqLT3trb8BcHWIsAhcCXsEVpWUM37Exeqp7ZWqOnkz0bWIgCm424bzq44hNbzgxBccTvZ4vK3W40AcK3tItzHg4dQen5wkVrrLS5/L6sR4HmVvwO3gmqfH4yHZo/F5Q+1WY0ANtgjh09vCU6k8fyguS0UrADmk384shoBcNW28VU2eidSeH7Qc/C0fSwu/2brEaBKUm3QGqndf/IYM+AHd1G4teWHTVDmJkAm7Ca2y1Q68XyG1D8/mOI+UDlGS8nPsGkQMwLg4mWWyb143cLsWtV7wOdiolaHWlz+PlYkwEnMvUi2HfHS7vv3KA1da0fAU8ZZXP5WZEUCYCwaSgkOVTldH2qI0VKWFZess9ni8ndakwCbMT9nltIXU97QGP0yHTPjDIvLH2RNAhSHcv49uGbP5RaX/zNkTQLgWi9KsZlMfkoUJl/BnmJt+VV6sk1EAN8WzC+ayOKXpOGi1J+1uPxDkFUJgM+ceJfBL8FWt02xuPwrrUsAX1zyVEIk9R9Si1u/fhaXfzmyLgHQd7hftTCC8u/AF4heb3H586xMAH/sz5oeQPVnREkMNgBTyJ+NrEwA/MYmJdL0cPuX4abJP2Jt+Qu2WZsAmBZeEt3atxGx2FnaLC5/OrI4AXrhg+X696Y0x6Ea7BxFNmvLP7vQ6gRAW2Tyrem8RyOx+6dkH2pt+TGZCJYiwFyZ9PHJNOIc6mSq2sdYXP75yPoEkO3gU/OG7uFvyAzfN8Da8kuRPYEAspVUCjL0jT1DrjdES6S15WcYCciVAJnT5H5kvJ6muLl7OKyfYfIPQj2DAOiobO+ZVs0HnRkxsvXK4i0u/4TCnkIApeLN9Zq2aluWfJGqsWnWlr8lEvUYAuBt6o+wvVT1kJEKKbmhQ60tP5cDADcCKPbxKpuqLoTybH+lnPzrFpd/FOpRBEhTbDrRMoo40sq2d7liSY5Ui8ufaOtZBEBHCEorTzrjRzDSyc6ZykMlWVz++kzUwwiAIonaUMZXzZUfJflVkmH6WVz+uFLU4wiAlkpkiEsfAEdbbAvrX0Y2REWAteXvG4F6IAHQOvIazgsrJs4aFhU5JyITpfk2Dl0X3R4ynfzbjFoscpO/Zg7qkQRAQ6n0nlLEIFbnJ07yT+P4/PMlAIpczWH9ytmdn7nIX1GIeiwBUONM5usXw3K1OMg/DqEeTAAUMZnt8hWksl0u1vJLJahnEwCFj2O5fA11rNeLrfwqC9pakQAIrbUzW77dqzisGEP5F+aip4AAaFg+q+NTGpclYyZ/vR96KgiA5ixnsXz5GbzM52zklzpt6CkhAEIvLKK+fDn+HFeNgfzjfRB6egiAfEfSXb7V0XyXjbb8UnkEeqoIgNAzYyku3wj+b0+q8seuQ+hpIwAKv0HLspodZMTK0ZM/oa03egoJgFBEEo3lqxlg1NrRkV8atRihp5MACG37TO/qtYYZuXr65U8YaKj6jSYAQo0Dx+tYvoqqYGOXT6f8e26UGiy/4QRAKLw6TuPDkx6ETADN8kvLq00gvvEEQAiN2a7ez5qTFYDMAi3y17SvMoXspiAAQra8cjU93ydn+CJTQaX8ZUlRZpHcJAToSsGbV15JtPPn1B5FJgSp/NL0jl4mEts8BHhwsfLprG+RWbsJ48LW25B5oSS/NHvcvAhziWwuAnSh98Y+qTE5K9ydrg2T32+fl1uKLABQfqm1vrw9OsrXfOKajwCPURjh37h+zbrcbat8ZyAL4rH8kY2BfoXmFdO8BBAQBBAQBBAQBBAQBBAQBBAQBBAQBBAQBBAQBBAQBBAQBBAQBBAQBBAQBBAQBBAQBBAQBBAQBBAQBBDoGQQI8AvcuH7Nx5GBAdZc2SV//+HnDZ//5/APS0wtZjmnYtsqcChvU3riBLeY6tjl/Z/bWrfKGpq//PZ/b1444XTBvtuXrnz645+XzSjtRIgAQ4ySprjP1CGhMnkVlZ+1rTGz7r9+5839Thmc+PX85yYTGaxxMN8QUXySiGrp5+esXWdK7f9x7baTAK988sU/TSR1OliyhrsYtl7flalIrmyICTKX8m2/XGtykqPpX4fNIvkxaH1nchYiqHOF6vTqSdGZplH/hg8OOtXit+Mvm0L2l8AHjKsIC+olTUhISjHFEh7/zeHUglduvW4C6eGeiOHc5vfvaNVRYqWf4YnWlz/9Rpv6u+D41fjTwHVwYXm9YVf1l3Si+RkjV+/nD5068dtbBhMgF1xWPmVLp5TQqLJWaVilnb/fclLATx8ZSgBfcFFvcJg5OLVMooMiQ2wDv59vctLBPUNtA6DdZQT7eU/VUCy1OnEu93V75x9Oenjva+MIABpf6lnP6vc+3VrLZVv5Vo7Zca3rDEft/5xNPxpW+Qasdbma9d1jvEQbzY0cF+2Xgw/0//A/FP7pcDh/+9kgAnSCy8l0Nf2HMGkYMZjXkr1889Fz63hX0PrUAAAU7ElEQVS8C3T/Q+vfnY5dx40hQDS4miwr8OYlSGwQwsc2ePj2o2ff0b0LuP03Tf/e4XSeNsRxfBJcy0HsJrzBrulS30gOC3Z1l9Pl+Xd5nGX/neznH//npw1GMEDiawzewrTt2mbmy/XBoy3bXYMABWT/G8wHh/MrAwgwHVxJRg3MIpolthjIdrHu//bo5AZpUM1DD5Gj6x8f8CfAdnAh1zKZ62iNxBpMW8ce3vf45Can0O6DHf6h93z/P/nOLe4EGABb11hMlcKj+XIIuxv1hqYnmlPSP8lnYHKc420RmAKvI4Pz1NDxEg8MYtWB5/NXXJ5UZf3LPvTgDvDwz4d/cWbANLiNIfV5osivfwsrJs4aFhU5JyITpfk2Dl0XPTWkmbxf5xA218G3d7k+3LL6P7j/vfNXP99w4P4StOO1nzf88u2b5y7eVdwBHv+L/ZxDRZ6TuEQF1RFqMC7GZwo4QFBYyGyyIUYyMf67varx+/q9m1dhy/7hr87tg3cIT178ypcAveBVpNyIeyiR/uPnFcuOsi05lqgNI4P93+2wjtsBLnwr79Y5fOe29zvA+05wmi8D4K15C9U5Ahcqq61+K0n/xzElMw24DV5ugu98rrr77av7JCfJDw4q3xdvciUA7JkroFncPk0x4rsghDgMyVY1XZEBlCMadpzAaKz7r+eIA33/9sf3MveFh7vAeZ4E8GF+o7ZVKOgrNEld7+c8pQGlLJor9NclJ2DAf7J9Ox13bx1Qd6Dc724x8N4Fjhv/DpDotTScqKCtZwPVnymVDgNnKS7QOdDa1/2PKz+oHvLP225HCu8L4n84EmAcvITptMZ/QV5V0zS10OqdKt/DfSG9KKGd3RryMuE6HRpDun7f2eRqM/S+SnKMEsqDl7CF0ikgRS7dT1qtOZjH7ztZx+JwagbAu06ZHaDpR62Gm/u3XLTvvQt8wnELwCTmJFEZPLxIVk16umitlDUMtNFZnCUnHJgd4IHVRs+D+s99+B3AwfMgOBVeQftQ1gcAe60+y3eE3GGwgI5L80NX/5/Hg+q48zddY9/fj3Modw3+JTcCHMJ16KQwdpVc72/9eb7tMsOvoNFu7COH50m9W0/79Gf2vIlzFzuczn/s4MaAeMwSbtI9coSMB2AajSaKeTInDArvsB92ub+nXXeAe/cpyP/2Xbw7iZ9v+HlcHrZuFYXIWP7otNMbir8N2PX7NC/gT+qX6MTwfdmEdyzwyyKfjPOtsrlgPLj805I9ZSx2Dt2lLt7C3tUdv/5OSf6fD+IiSpwXuRHgGdwS6su8y6xhuT0/hm8RK4PgkoPd4dseCqK4Pd+/jQkUc/AzCNp244y0ujKFO9k//w8YgPUPzU7TNfBNbMznFZryv3YQF1O4j9s5EHtYj9VRpi2FvZXmIYKw5wBd5swN2IBOylaaw7hzAEe/IHYbHaV9TGwGYBztoJ1c3F3A7q9j1Cu449k92kE7X97FxRYf4EUAH+zTGq11yI3YXE5ffjvYd9rHfB0T0evcd5+6/G85MQaB97htAVijWsFSjSOW455KFnXeknDSayfbOYxOHL8wkP8WJpz07mu8CJBSgPXWa3LXoUCcryaZhfiZRbRPAZdxu/IdFvK/fA+OEeJ4CtiOr8un6SqAcwIwKkS6qgHj1PTTOOBpzLlsPxv5L78Ch4ze/TsvAhTig+1aD6kf7ghmrLGsynngTjHPad4AwLB+Zo76tzBRgp9y2wKG4c12e9RXDEjGDHWdmfzLMAUFSzWN9iYml+cdZvKfg/PIdvHzCclUbVut2qxew8UC4HboCKVpzTwI5Po4HSzjNA7chU+d/OqI+cpEWTWoPAnWYcZhWd4T4xvO1jLW29DTz/hefgeOOb/EjQByvhspP0/VUJhAw+0sxQ/eA086R6cRyEUbTPO3fz8IZ50f4MeA7XIxVqkqBirGjOHHVPxqeNJ29SN9fRcMAbnLNlTzR6B+jMPpfJMfAZBszkUieXhAGHMfIIRwuPJwjfqR/gvn+TIO0Xh5H7gDnOBIgEDZYOvVxEZBuBKY/d+Mxa+F5X5e9UD7wSsZc8v8He/KIV1/+4UjA5bKB/GnkzkHC9nElyjCL5/OxrMDTun/kLX8970zxrr+wrVuSK08A2YSbQIY38zHzKWPAefdrXaYq7AfkH26zi3vGjNdFaV5EkAujO/hY0yQMwb7gV5lL3wQLLPa2Mb3QP3fZi//Ye+k8a7/u8+TALYcpV4dGYrR/A2GVSGPA2eep3KUfWA1Fx6pGt+DxqBvuW4BAUVKube7o+UpEAUfAX05CN8mUah/vgFO4efhmT0PeqCucSUAiqhU7tOQJVeL6Qb4nQou1xjQCT1B4yXQbTvez0P+H8AQtBN8CYACCdp41VRnqjwCvIA9u1cPLI+PLx/4whRFyU6ujQnJGTRxKt4sCb/A1N0/r3kbY7jZ5PeDQagHODOgkaSXU0LSG6pexJiTWJWLzSBngJxUabXdW1PDd5hWshkUDgHfg48hn9icneDc3yLeDCBr6FKUAdl2beA2DPejjJrv/qlJ2IzU3mfck4EL0sHIgqH6gwJsd53G3AG68CW4A3zKmwBoG2FLn4LmkuueDvdtxNYYW4f3URFTpnaKd53h2VD+rw28gahqiH0YtALwssa8Ah0DP+ROABSpoqlTXElW1AwlM9AC4L7Rn7jKWyR4LKkCPjmSfPvB4FvwJM5rF/4VYt9t/gRAq2IlVWitSErO2Bo9oM/KUaQ1h3KI04Y2YurMVpFeBJV/75Kv/9+By4c3fPmff54Gs3V/4LTu8EXQAAKgtHiaNXxbvScYhftsiecn5+KSDEO9z6F1qgNRlnx04YRbS08oWXMfr2X/E5zfmJ5C7RQJ4B2XU43/sGfrSnwlEO/sv0Dwc8OwP/Kvnd+4ax8OBuYWl3MAnP+qIQRAeYuoEcDLGBcgU+HHw3sjF6nU4SW0uopBOy55NnGDdwB+KTpgMPJ5YwiAAuNoEcDrcC/rdnQL5LTJnUZCvcwL04jeKo/w8kWHexM33A7wBbc1vwfN/4FBBECZSZQI4GXikb1lFCm/1bGJRoPUeAOuebVyw+wA/No8X4GCEa4hw1CVT4UAnlHFH7tVeD+J0JhEXCBnutuWPwWhaNc7YbOnwGBMQH/4x70DVOmEdwB+pTtvQl0lrhhHANQ4mgYBPBMLXHqHh/Z5+K8WuHw8w+WjLsG+cY/SvV3zzo54jPycioS020rNfp78e3493T6FZNiPjEQGBQLMwR/sn7zwXbyIId2fdG1x/qSqsEtVo70eI6+Fpp8O/rD/wJVZoB3gMrfV/h8kw/eGEgAdqtBNAE+nQffBrqzb8tD98dEuRkCoWsU8fLj6JnKH8B0oChsu2sYtRxPthIwRJ5DB8NHb8g1/BnSx09dDdiOXM2B3g+Aj+PYQg6Hpx4O/6hy+SJ/nH36dfI5DLUleQYYjrIwqAcDzWb/uRKTufzkM8uqG44vYLCC3BX/iUG4ByN0W+y3YYcx4AqAZnXoI4Gmx695RpnX/y25/f2X3v8yFcnxcmh4fI7EwlsE3LmL9O/jl6H4E7UZNyAwIHKWdAJ4Bgcu7/6dtgKpdLMf+kFOvBF/QNpU8O+gmSQfIh3+4lWrpOgN4xyP+A5kD/umhGgngGcATAlzRJsE+YZdRHje2Xx+KrziQrGhZeoI/sG1gvf7GzxtzB+osfA+ZBcXtNVTsANEu/9uyB/lGxcMx0QPxXoGFua7nkUISO0A9bAjepdjY9fEfjnYASI5LyETIC9FAAE9LoFvP2taYBYOTynBHBreX+vz2623xssE+oCUwHm90IWv+ys8S+C/IMHkBmQppgwepNRB7mmuQbLSBWxZhhOzAVUS+gGXwD1lykKS9c9cffr6ADyHD5DlkNoQPG6eqG7SXNzCX/IVRQuo2egCwSeFEzM/40ukkOwfw8wb+n/sm9PC/vIfMiF4diQtJCeAd6def+MNzZbabPghvYXBBLe43vLVL2QjU9Q9+/VxB18QdZFYU1720ZToBAbycdmgOdgdpXUxi3PP0GTzCRtLgwUf44YKyHdDp4Fe7/2fQNfEHMjciq6b2mx8rl07S4P2lNZgrZYJ3SbIOzKjLw70+OozoEuJmetsnfwF48IebJeaqp2viwd82IAsBjssFSg3CusqHOpdvgePRgW7jcCCjfH3y198+f2fnj39c/eXLwwfuu1liuv/GyxDwJthPeomVCABXGQkDPpkLxAXOhAvTJgPpRp9Bas2GJl+hRv4/oe3A+SOn1bvkBDrJ/sNK+kdzJeKLmL+Xn3kkrpiDz2yi6l8B4OQ5auTfAe0ADk4xOb/fhd5Cn1iKAGghuTsGvesW8VkkU0o+oN21B519y2IV24+6XugHoR3gGz5r9zZ4EL1pLQLEqzqHPR/zyAa4p0ShHGlp9GePD38ZuI7jxyiUi/0Q2gE4GYM/BQ+iH1mLAB1k4bvdmLEqN/cQWVHniKCo9Udk/nfQDCQdVXcOA++CfK7iJ8BGVT9biwAD6NTq0gI4O3ysypsYaA7gUqtrg0eRyEfN5K2lf+QHNwvJ5TB1CaEZUv4U6ADNATy6OX8AGiFOW4wALrF9rhjIfmIbbIsarPYqBvkDHRyyc2z7QDPUcasR4AZpgjBtYJKIAlUOcx40CnJIEP4T9kj9YDUCRMJ6iGY+8Ui4ppnaYQ67hOO4qIP9g/gr6JM+gSyHmYSuW8qAi9OotAI8OIu7ZQs+/vN/rOU/7G2CotyomBcwKaXDGE/7Plk0kjJuurtjH6uFdZb+aaBLAddoJGpYCWtiPttZ/e103gDdOWMeymDsEz7g8ApIs+gbwDXC3w3rjNh31moY6rbbffyJQv7JVP5bYL8IjsFIFJFswBawsYBejeLzXpVC2W8BP7uHoT2Z/zUrEsDXLlEwytOwPqjzBD7G3x2eobkP/wtLp/AlB9CnjHqvel7ABP2On8tsxmhM1NACTaNdcQ/MexIYxK5t1HEgKZhngULK2ItRxyhWE87ABKS1hmsa7h24agi7yu079jnAaNR9S6xJADSTOIyXDp7FzDdL43j/AKuGsOsdewXMTTGuPphupGIUMv4Ik+lwVQfHB2gc8EewaojT0cTGLvsRJh69yaobAArH1QEcbWMwWwouabVW64i/H4R3AOdvLOR/fRcmO+UOsizacBHix+jPlbkb19QgTfOYO4GggAccYFC7/eWfMNHor+ywLgHCcYkf9gW0p7IlMiCbex9P1/sg9XO5DZOcwoRs/LAWmyVyivJMI3AT5etpVnzeAdaQczidb1OW/xouL3XX11YmQCE2cTA/iupEHVimzdIz7JKDTngHcO76nKr8n0Kn/weznUeWRhVWMeODKE6zCd/crLeuga86cHUEmw5TlP+/uMx054m/rE0ATA/pLqxeT++wacfO0kvn0BcgzTz42zf0gsTPY+vSMPY9ccAcfEWhhF6U5ojBJ6Qu0zv2D7twtYQdr9BSzr+waamGFghmfg6UWqpoTNBbplxNfoTu4XdiS8c671LJ2P7rnMO7ItSjP7vuW58ASK4N7RkK58whMuPPoiD/907PBKHuV8FX+odfst/pxO0AVj8BPkSQXFm5UQE6R4+UayXRTMNid/muR4qg6zH9ml4z7YbbDs/Bu/9c/KsnEABtlSsb0neorrFT5dg1fjEV+Y/jdwCH8yd9R8Gdu+DBH140XkM9A/3lGNDSpv0xjUiUrUmzlJL856AL+mMO3D2vXf77Fzzjjt22gLd7iP5RoXwn6maNm4BNoXh1Jy35Xz4BmeiecOCixk3A9tU3TjAE9NGfD1CPQW6BrKbsW7Qc1qOmKdSkouey23AXLhv1WHXXtBzWP7/nwJDq4f+7aOs5BEBZCgXE8juLVY64XqmnZVkgRfm/hQvHPVHdrk/VWuw3/OrSFAKKO2j6AfUkHFOqIbcouVDFcI3L7EqUGkNV/jchP52r7pr+p+Y+8PM597hv79jDV75EPQvKxYVXp5I67lPKlYsS1lGW/zRkCXIvILOT1HH/+mmZyqSPGPZnD9M/Cq5XVlpof59g5ZN/arPySHYf2vL/fgl4B3hc4O5eufq78sl/50VsJcInHHBcRT0OxZUk5WQbkvbKRY0HhQ0nqkrLIPfg69tOzAPr+vemW2/JnQYO//iJfH/iRxz4EfVA+E8grCk8LWYAUFKyMDcshLRnUTIL+V874ZBrMdjdf/bezbeAgj5Lvvzq3DdOpf7EDwf5H+qRiChSUVq8b3zJ2jODB+T1ul5VnVE7IrtVxXeT2ch//55ci0HXe4HT6fzpwgdffHX8rbf/+c4fH+28c+3SvieticFeBG4DfoF6KKZQ60Mth4IFrOTfcRE+sLnfCh8xwOnZkd7hBCsOeL1QHN+iHou0Zvb6z69jJ/+SS/jWUu6WAQfUkd6FHvgT4K5fUA9GQA5r/c8eylL+Jb8qXN88OtF7XxcxG8CTr+/bgHo20tnqf/ccxvLfkW8x57oDuP0dLjfhGQHoPHEA9XQMLmCo//hC5vL/2UTSY8grvs+76APwWcevS1DPx7oyVuq3r+Uh/4F7TrI2U1DzP/mvfIGeCqwqYqP/1XV85F/ynsJLAHjMSXrTNf2JnhIEt7cw0P/kxdx+wDv7CDvNQSZD3De+fw09PQiaRF3/U3nKf/+KcqthKJdA5htvoqcKtk0JVNVfcYjzDzje5CRvPO+Usf4+/LP/dfS0wT+Envpbq/jLf+A0sfodSm+Bfd+ipxG5lOyCBQMLDZH/y4symz7ufAj9Tx8sQU8nbFU1FEy/Mf6G/YA/Tsgf7wjOh45dty6jpxfhbXv0qX98+1wj5X/5/EEVuwDwt6Y3v0ZPN2zD4u2a1T/hTKbR8v/t6gWHml3APff7q5eRADrUqck2mFC+1ByB05c/bVL5Cnjwj1dO//mXUP4jy5BP/1CVVt+c6ADzyP/71St3CawCLlRwfHJ8idC7K9JeGKLi1t/mazb5d3z0iRNnC/LaAvaff01o3BtHspJeVVZ+Tfr1AHPK/9pHt26D50E3i8DBm++IZx+P4j5Th2ALS00YnrR5o7nl//qdN/cfxJ35T3xy66vXhY6VETC0qra8ormocuEiSSrb3ZwYEjN169KjlpF/yYY/7pzef/HeiYNNTkfT7YsXzt369Me3dbf+/P/wmao/+swjEAAAAABJRU5ErkJggg==;" vertex="1" parent="W7FsNv9sOyq8ad8Lk5w1-80">
          <mxGeometry x="14.26" y="3.728155339805825" width="54.1747572815534" height="54.1747572815534" as="geometry" />
        </mxCell>
        <mxCell id="W7FsNv9sOyq8ad8Lk5w1-72" value="&lt;font style=&quot;color: light-dark(rgb(0, 0, 0), rgb(0, 0, 153));&quot;&gt;GitHub Actions&lt;/font&gt;&lt;div&gt;&lt;font style=&quot;color: light-dark(rgb(0, 0, 0), rgb(0, 0, 153));&quot;&gt;Infrastructure&lt;/font&gt;&lt;/div&gt;" style="text;html=1;align=center;verticalAlign=middle;resizable=0;points=[];autosize=1;strokeColor=none;fillColor=none;" vertex="1" parent="W7FsNv9sOyq8ad8Lk5w1-80">
          <mxGeometry x="1.66" y="58.71844660194174" width="100" height="40" as="geometry" />
        </mxCell>
        <mxCell id="W7FsNv9sOyq8ad8Lk5w1-83" style="edgeStyle=orthogonalEdgeStyle;rounded=0;orthogonalLoop=1;jettySize=auto;html=1;entryX=0;entryY=0.5;entryDx=0;entryDy=0;strokeColor=light-dark(#000000,#000000);" edge="1" parent="1" source="W7FsNv9sOyq8ad8Lk5w1-14" target="W7FsNv9sOyq8ad8Lk5w1-81">
          <mxGeometry relative="1" as="geometry" />
        </mxCell>
        <mxCell id="W7FsNv9sOyq8ad8Lk5w1-88" value="Push&lt;div&gt;Templates&lt;/div&gt;" style="edgeLabel;html=1;align=center;verticalAlign=middle;resizable=0;points=[];" vertex="1" connectable="0" parent="W7FsNv9sOyq8ad8Lk5w1-83">
          <mxGeometry x="-0.2642" y="-1" relative="1" as="geometry">
            <mxPoint as="offset" />
          </mxGeometry>
        </mxCell>
        <mxCell id="W7FsNv9sOyq8ad8Lk5w1-84" style="edgeStyle=orthogonalEdgeStyle;rounded=0;orthogonalLoop=1;jettySize=auto;html=1;entryX=0;entryY=0.5;entryDx=0;entryDy=0;strokeColor=light-dark(#000000,#000000);" edge="1" parent="1" source="W7FsNv9sOyq8ad8Lk5w1-68" target="W7FsNv9sOyq8ad8Lk5w1-79">
          <mxGeometry relative="1" as="geometry" />
        </mxCell>
        <mxCell id="W7FsNv9sOyq8ad8Lk5w1-89" value="Push&lt;div&gt;Code&lt;/div&gt;" style="edgeLabel;html=1;align=center;verticalAlign=middle;resizable=0;points=[];" vertex="1" connectable="0" parent="W7FsNv9sOyq8ad8Lk5w1-84">
          <mxGeometry x="-0.3212" relative="1" as="geometry">
            <mxPoint as="offset" />
          </mxGeometry>
        </mxCell>
        <mxCell id="W7FsNv9sOyq8ad8Lk5w1-85" style="edgeStyle=orthogonalEdgeStyle;rounded=0;orthogonalLoop=1;jettySize=auto;html=1;entryX=-0.02;entryY=0.48;entryDx=0;entryDy=0;entryPerimeter=0;strokeColor=light-dark(#000000,#000000);" edge="1" parent="1" source="W7FsNv9sOyq8ad8Lk5w1-81" target="W7FsNv9sOyq8ad8Lk5w1-23">
          <mxGeometry relative="1" as="geometry" />
        </mxCell>
        <mxCell id="W7FsNv9sOyq8ad8Lk5w1-90" value="Upload&lt;div&gt;Templates&lt;/div&gt;" style="edgeLabel;html=1;align=center;verticalAlign=middle;resizable=0;points=[];" vertex="1" connectable="0" parent="W7FsNv9sOyq8ad8Lk5w1-85">
          <mxGeometry x="-0.686" relative="1" as="geometry">
            <mxPoint as="offset" />
          </mxGeometry>
        </mxCell>
        <mxCell id="W7FsNv9sOyq8ad8Lk5w1-86" style="edgeStyle=orthogonalEdgeStyle;rounded=0;orthogonalLoop=1;jettySize=auto;html=1;strokeColor=light-dark(#000000,#000000);" edge="1" parent="1" source="W7FsNv9sOyq8ad8Lk5w1-79" target="W7FsNv9sOyq8ad8Lk5w1-19">
          <mxGeometry relative="1" as="geometry" />
        </mxCell>
        <mxCell id="W7FsNv9sOyq8ad8Lk5w1-92" value="Build &amp;amp; Push&lt;div&gt;Docker Image&lt;/div&gt;" style="edgeLabel;html=1;align=center;verticalAlign=middle;resizable=0;points=[];" vertex="1" connectable="0" parent="W7FsNv9sOyq8ad8Lk5w1-86">
          <mxGeometry x="-0.2954" y="-1" relative="1" as="geometry">
            <mxPoint as="offset" />
          </mxGeometry>
        </mxCell>
        <mxCell id="W7FsNv9sOyq8ad8Lk5w1-87" style="edgeStyle=orthogonalEdgeStyle;rounded=0;orthogonalLoop=1;jettySize=auto;html=1;strokeColor=light-dark(#000000,#000000);" edge="1" parent="1" source="W7FsNv9sOyq8ad8Lk5w1-79" target="W7FsNv9sOyq8ad8Lk5w1-23">
          <mxGeometry relative="1" as="geometry">
            <Array as="points">
              <mxPoint x="188" y="599" />
              <mxPoint x="348" y="599" />
              <mxPoint x="348" y="299" />
            </Array>
          </mxGeometry>
        </mxCell>
        <mxCell id="W7FsNv9sOyq8ad8Lk5w1-91" value="Upload Code Deploy&lt;div&gt;Config Files&lt;/div&gt;" style="edgeLabel;html=1;align=center;verticalAlign=middle;resizable=0;points=[];" vertex="1" connectable="0" parent="W7FsNv9sOyq8ad8Lk5w1-87">
          <mxGeometry x="-0.4458" y="2" relative="1" as="geometry">
            <mxPoint as="offset" />
          </mxGeometry>
        </mxCell>
        <mxCell id="W7FsNv9sOyq8ad8Lk5w1-95" value="" style="group" vertex="1" connectable="0" parent="1">
          <mxGeometry x="1128" y="43.89" width="77.55" height="105.11" as="geometry" />
        </mxCell>
        <mxCell id="W7FsNv9sOyq8ad8Lk5w1-15" value="" style="dashed=0;outlineConnect=0;html=1;align=center;labelPosition=center;verticalLabelPosition=bottom;verticalAlign=top;shape=mxgraph.weblogos.messenger" vertex="1" parent="W7FsNv9sOyq8ad8Lk5w1-95">
          <mxGeometry width="77.55" height="72.11" as="geometry" />
        </mxCell>
        <mxCell id="W7FsNv9sOyq8ad8Lk5w1-93" value="&lt;font style=&quot;color: light-dark(rgb(0, 0, 0), rgb(204, 0, 0)); font-size: 14px;&quot;&gt;Users&lt;/font&gt;" style="text;html=1;align=center;verticalAlign=middle;resizable=0;points=[];autosize=1;strokeColor=none;fillColor=none;" vertex="1" parent="W7FsNv9sOyq8ad8Lk5w1-95">
          <mxGeometry x="11" y="75.11" width="60" height="30" as="geometry" />
        </mxCell>
        <mxCell id="W7FsNv9sOyq8ad8Lk5w1-96" style="edgeStyle=orthogonalEdgeStyle;rounded=0;orthogonalLoop=1;jettySize=auto;html=1;entryX=0.509;entryY=-0.009;entryDx=0;entryDy=0;entryPerimeter=0;strokeColor=light-dark(#000000,#000000);strokeWidth=2;exitX=0.013;exitY=0.584;exitDx=0;exitDy=0;exitPerimeter=0;" edge="1" parent="1" source="W7FsNv9sOyq8ad8Lk5w1-15" target="W7FsNv9sOyq8ad8Lk5w1-21">
          <mxGeometry relative="1" as="geometry" />
        </mxCell>
        <mxCell id="W7FsNv9sOyq8ad8Lk5w1-97" style="edgeStyle=orthogonalEdgeStyle;rounded=0;orthogonalLoop=1;jettySize=auto;html=1;strokeColor=light-dark(#000000,#000000);strokeWidth=2;" edge="1" parent="1" source="W7FsNv9sOyq8ad8Lk5w1-15" target="W7FsNv9sOyq8ad8Lk5w1-27">
          <mxGeometry relative="1" as="geometry">
            <mxPoint x="1488" y="454" as="targetPoint" />
            <Array as="points">
              <mxPoint x="1518" y="89" />
            </Array>
          </mxGeometry>
        </mxCell>
      </root>
    </mxGraphModel>
  </diagram>
</mxfile>
